<?xml version="1.0" encoding="UTF-8" standalone="no"?>
<!DOCTYPE svg PUBLIC "-//W3C//DTD SVG 1.1//EN" "http://www.w3.org/Graphics/SVG/1.1/DTD/svg11.dtd">
<svg xmlns="http://www.w3.org/2000/svg" version="1.1" viewBox="0 0 300 199">
  <g stroke-width="2.00" fill="none" stroke-linecap="butt">
    <path stroke="#676767" vector-effect="non-scaling-stroke"
      d="
  M 294.75 104.96
  C 298.36 141.13 269.02 175.46 230.71 158.52
  A 0.58 0.57 -61.6 0 0 229.99 158.74
  C 212.32 186.34 176.06 190.57 152.33 167.84
  A 0.64 0.63 -39.6 0 0 151.55 167.77
  C 125.88 184.33 87.59 183.13 64.68 161.97
  A 1.35 0.41 -3.4 0 0 63.75 161.75
  Q 63.54 161.75 63.51 161.93
  A 0.51 0.51 0.0 0 1 63.23 162.29
  Q 42.49 171.68 22.29 161.25"
    />
    <path stroke="#808080" vector-effect="non-scaling-stroke"
      d="
  M 22.29 161.25
  Q 17.05 158.21 12.75 153.96"
    />
    <path stroke="#676767" vector-effect="non-scaling-stroke"
      d="
  M 12.75 153.96
  Q 8.74 149.87 5.75 144.98
  Q 5.57 144.68 5.29 145.00"
    />
    <path stroke="#808080" vector-effect="non-scaling-stroke"
      d="
  M 252.24 60.43
  C 247.58 27.39 221.71 -0.11 186.78 1.08
  C 160.87 1.96 139.36 20.00 130.25 43.94
  A 0.48 0.48 0.0 0 1 129.62 44.22
  C 99.85 32.17 65.27 46.39 56.11 78.08
  Q 55.44 80.42 54.66 82.72
  A 0.59 0.59 0.0 0 1 54.01 83.11
  C 36.48 79.93 19.71 85.10 9.29 99.42
  C -17.47 136.20 24.52 180.35 64.03 160.72
  A 0.75 0.74 -37.0 0 1 64.85 160.83
  C 88.55 182.00 125.24 183.17 151.60 166.48
  A 0.65 0.64 -38.9 0 1 152.39 166.56
  C 176.05 189.68 212.24 185.26 229.73 157.30
  A 0.54 0.54 0.0 0 1 230.43 157.11
  C 253.58 168.94 278.61 157.97 288.93 135.18
  C 302.01 106.27 288.60 64.59 252.82 60.99
  A 0.65 0.65 0.0 0 1 252.24 60.43"
    />
    <path stroke="#e6e6e6" vector-effect="non-scaling-stroke"
      d="
  M 187.89 198.28
  Q 174.01 195.86 164.56 189.20
  Q 163.18 188.22 159.16 184.88
  A 0.43 0.43 0.0 0 0 158.50 185.01
  Q 158.36 185.26 158.46 185.50"
    />
    <path stroke="#e6e6e6" vector-effect="non-scaling-stroke"
      d="
  M 41.25 182.46
  Q 41.84 182.41 42.06 182.16
  Q 42.48 181.70 41.87 181.57
  Q 17.51 176.74 7.71 153.89"
    />
    <path stroke="#e6e6e6" vector-effect="non-scaling-stroke"
      d="
  M 12.75 153.96
  L 12.14 154.05
  A 0.42 0.42 0.0 0 0 11.90 154.77
  Q 16.19 159.11 21.57 161.96
  A 0.43 0.42 20.8 0 0 22.18 161.69
  L 22.29 161.25"
    />
  </g>
  <path fill="#010101" fill-opacity="0.996"
    d="
  M 294.75 104.96
  C 298.36 141.13 269.02 175.46 230.71 158.52
  A 0.58 0.57 -61.6 0 0 229.99 158.74
  C 212.32 186.34 176.06 190.57 152.33 167.84
  A 0.64 0.63 -39.6 0 0 151.55 167.77
  C 125.88 184.33 87.59 183.13 64.68 161.97
  A 1.35 0.41 -3.4 0 0 63.75 161.75
  Q 63.54 161.75 63.51 161.93
  A 0.51 0.51 0.0 0 1 63.23 162.29
  Q 42.49 171.68 22.29 161.25
  Q 17.05 158.21 12.75 153.96
  Q 8.74 149.87 5.75 144.98
  Q 5.57 144.68 5.29 145.00
  Q 5.30 143.86 5.15 143.58
  C -12.05 109.63 17.86 75.35 53.31 82.17
  A 0.70 0.69 -77.4 0 0 54.12 81.65
  C 62.21 47.69 96.65 30.66 129.07 43.11
  A 0.55 0.54 -68.7 0 0 129.77 42.80
  C 138.27 21.09 156.80 4.28 180.02 0.82
  C 216.91 -4.66 247.32 23.14 252.71 58.35
  A 2.36 2.36 0.0 0 0 254.60 60.30
  C 277.77 64.62 291.77 81.90 294.75 104.96
  Z
  M 252.24 60.43
  C 247.58 27.39 221.71 -0.11 186.78 1.08
  C 160.87 1.96 139.36 20.00 130.25 43.94
  A 0.48 0.48 0.0 0 1 129.62 44.22
  C 99.85 32.17 65.27 46.39 56.11 78.08
  Q 55.44 80.42 54.66 82.72
  A 0.59 0.59 0.0 0 1 54.01 83.11
  C 36.48 79.93 19.71 85.10 9.29 99.42
  C -17.47 136.20 24.52 180.35 64.03 160.72
  A 0.75 0.74 -37.0 0 1 64.85 160.83
  C 88.55 182.00 125.24 183.17 151.60 166.48
  A 0.65 0.64 -38.9 0 1 152.39 166.56
  C 176.05 189.68 212.24 185.26 229.73 157.30
  A 0.54 0.54 0.0 0 1 230.43 157.11
  C 253.58 168.94 278.61 157.97 288.93 135.18
  C 302.01 106.27 288.60 64.59 252.82 60.99
  A 0.65 0.65 0.0 0 1 252.24 60.43
  Z"
  />
  <path fill="#ffffff"
    d="
  M 252.82 60.99
  C 288.60 64.59 302.01 106.27 288.93 135.18
  C 278.61 157.97 253.58 168.94 230.43 157.11
  A 0.54 0.54 0.0 0 0 229.73 157.30
  C 212.24 185.26 176.05 189.68 152.39 166.56
  A 0.65 0.64 -38.9 0 0 151.60 166.48
  C 125.24 183.17 88.55 182.00 64.85 160.83
  A 0.75 0.74 -37.0 0 0 64.03 160.72
  C 24.52 180.35 -17.47 136.20 9.29 99.42
  C 19.71 85.10 36.48 79.93 54.01 83.11
  A 0.59 0.59 0.0 0 0 54.66 82.72
  Q 55.44 80.42 56.11 78.08
  C 65.27 46.39 99.85 32.17 129.62 44.22
  A 0.48 0.48 0.0 0 0 130.25 43.94
  C 139.36 20.00 160.87 1.96 186.78 1.08
  C 221.71 -0.11 247.58 27.39 252.24 60.43
  A 0.65 0.65 0.0 0 0 252.82 60.99
  Z"
  />
  <path fill="#cccccc"
    d="
  M 294.75 104.96
  Q 304.12 126.43 295.97 148.48
  C 286.80 173.31 260.54 187.57 235.61 174.81
  A 0.56 0.56 0.0 0 0 234.89 175.01
  Q 220.80 196.79 194.69 199.00
  L 189.94 199.00
  Q 188.78 198.90 187.89 198.28
  Q 174.01 195.86 164.56 189.20
  Q 163.18 188.22 159.16 184.88
  A 0.43 0.43 0.0 0 0 158.50 185.01
  Q 158.36 185.26 158.46 185.50
  L 157.27 184.36
  A 0.61 0.61 0.0 0 0 156.54 184.27
  C 129.64 199.96 93.51 200.17 69.44 178.41
  A 0.75 0.74 -37.0 0 0 68.62 178.30
  Q 55.70 184.83 41.25 182.46
  Q 41.84 182.41 42.06 182.16
  Q 42.48 181.70 41.87 181.57
  Q 17.51 176.74 7.71 153.89
  Q 5.63 149.79 5.29 145.00
  Q 5.57 144.68 5.75 144.98
  Q 8.74 149.87 12.75 153.96
  L 12.14 154.05
  A 0.42 0.42 0.0 0 0 11.90 154.77
  Q 16.19 159.11 21.57 161.96
  A 0.43 0.42 20.8 0 0 22.18 161.69
  L 22.29 161.25
  Q 42.49 171.68 63.23 162.29
  A 0.51 0.51 0.0 0 0 63.51 161.93
  Q 63.54 161.75 63.75 161.75
  A 1.35 0.41 -3.4 0 1 64.68 161.97
  C 87.59 183.13 125.88 184.33 151.55 167.77
  A 0.64 0.63 -39.6 0 1 152.33 167.84
  C 176.06 190.57 212.32 186.34 229.99 158.74
  A 0.58 0.57 -61.6 0 1 230.71 158.52
  C 269.02 175.46 298.36 141.13 294.75 104.96
  Z"
  />
  <path fill="#ffffff"
    d="
  M 7.71 153.89
  Q 17.51 176.74 41.87 181.57
  Q 42.48 181.70 42.06 182.16
  Q 41.84 182.41 41.25 182.46
  Q 16.19 177.77 7.71 153.89
  Z"
  />
  <path fill="#ffffff"
    d="
  M 12.75 153.96
  Q 17.05 158.21 22.29 161.25
  L 22.18 161.69
  A 0.43 0.42 20.8 0 1 21.57 161.96
  Q 16.19 159.11 11.90 154.77
  A 0.42 0.42 0.0 0 1 12.14 154.05
  L 12.75 153.96
  Z"
  />
  <path fill="#ffffff"
    d="
  M 187.89 198.28
  Q 170.76 197.26 158.46 185.50
  Q 158.36 185.26 158.50 185.01
  A 0.43 0.43 0.0 0 1 159.16 184.88
  Q 163.18 188.22 164.56 189.20
  Q 174.01 195.86 187.89 198.28
  Z"
  />
</svg>