<?xml version="1.0" encoding="UTF-8" standalone="no"?>
<!DOCTYPE svg PUBLIC "-//W3C//DTD SVG 1.1//EN" "http://www.w3.org/Graphics/SVG/1.1/DTD/svg11.dtd">
<svg xmlns="http://www.w3.org/2000/svg" version="1.1" viewBox="0 0 512 512">
<g stroke-width="2.00" fill="none" stroke-linecap="butt">
<path stroke="#8ea4aa" vector-effect="non-scaling-stroke" d="
  M 211.00 36.46
  L 178.22 69.20"
/>
<path stroke="#728288" vector-effect="non-scaling-stroke" d="
  M 178.22 69.20
  L 110.82 1.94
  Q 110.50 1.61 110.50 1.16
  L 110.50 0.79"
/>
<path stroke="#556065" vector-effect="non-scaling-stroke" d="
  M 485.79 24.75
  L 485.63 25.22
  Q 485.47 25.69 485.76 26.08
  Q 487.29 28.14 487.52 28.81
  Q 495.13 50.23 478.52 66.28
  Q 463.62 80.67 415.74 129.25
  Q 415.64 129.36 415.50 129.32
  Q 415.35 129.28 415.25 129.29"
/>
<path stroke="#9db6bb" vector-effect="non-scaling-stroke" d="
  M 415.25 129.29
  C 413.93 129.27 365.83 80.42 360.50 75.21"
/>
<path stroke="#809399" vector-effect="non-scaling-stroke" d="
  M 178.22 69.20
  L 156.29 91.25"
/>
<path stroke="#7aa2aa" vector-effect="non-scaling-stroke" d="
  M 437.00 151.29
  L 415.29 129.75"
/>
<path stroke="#8ea4aa" vector-effect="non-scaling-stroke" d="
  M 415.29 129.75
  L 415.25 129.29"
/>
<path stroke="#5f95dd" vector-effect="non-scaling-stroke" d="
  M 250.75 184.71
  Q 218.21 217.33 185.68 249.95
  C 185.31 250.32 184.95 250.37 184.50 250.54"
/>
<path stroke="#8ea4aa" vector-effect="non-scaling-stroke" d="
  M 36.25 210.79
  Q 37.19 210.44 37.56 210.06
  Q 63.62 184.00 89.69 157.94
  Q 90.45 157.19 90.54 156.75"
/>
<path stroke="#b9d8dd" vector-effect="non-scaling-stroke" d="
  M 156.25 134.96
  L 134.21 157.00"
/>
<path stroke="#abc7cc" vector-effect="non-scaling-stroke" d="
  M 134.21 157.00
  Q 125.99 164.96 118.03 173.19
  C 110.91 180.56 123.33 189.30 128.06 193.92
  C 133.10 198.84 136.96 197.60 141.72 192.89
  Q 149.04 185.65 156.25 178.29"
/>
<path stroke="#b9d8dd" vector-effect="non-scaling-stroke" d="
  M 156.25 178.29
  L 178.04 156.50"
/>
<path stroke="#abc7cc" vector-effect="non-scaling-stroke" d="
  M 178.04 156.50
  Q 185.84 148.92 193.43 141.12
  C 201.71 132.61 190.28 124.98 184.72 119.66
  C 181.23 116.32 177.16 114.59 173.25 117.99
  Q 166.23 124.08 156.25 134.96"
/>
<path stroke="#c8e9ee" vector-effect="non-scaling-stroke" d="
  M 178.04 156.50
  L 156.25 134.96"
/>
<path stroke="#c8e9ee" vector-effect="non-scaling-stroke" d="
  M 156.25 178.29
  Q 146.50 169.02 137.19 159.31
  Q 136.44 158.53 134.21 157.00"
/>
<path stroke="#c2f8ff" vector-effect="non-scaling-stroke" d="
  M 415.29 129.75
  L 386.25 158.79"
/>
<path stroke="#7cb8ff" vector-effect="non-scaling-stroke" d="
  M 386.25 158.79
  L 331.46 104.25"
/>
<path stroke="#68b5ff" vector-effect="non-scaling-stroke" d="
  M 386.25 158.79
  Q 386.23 158.90 386.21 159.00"
/>
<path stroke="#2663ff" vector-effect="non-scaling-stroke" d="
  M 386.21 159.00
  Q 386.06 158.99 385.93 159.01
  Q 385.79 159.02 385.69 159.12
  L 103.87 440.93"
/>
<path stroke="#9187b6" vector-effect="non-scaling-stroke" d="
  M 103.87 440.93
  Q 103.60 440.73 103.50 440.71"
/>
<path stroke="#919cca" vector-effect="non-scaling-stroke" d="
  M 103.50 440.71
  L 49.17 386.57"
/>
<path stroke="#6ca3ff" vector-effect="non-scaling-stroke" d="
  M 407.75 180.54
  L 386.21 159.00"
/>
<path stroke="#7295ee" vector-effect="non-scaling-stroke" d="
  M 327.21 261.75
  Q 327.08 261.78 326.92 261.77
  Q 326.59 261.74 326.36 261.97
  L 305.00 283.46"
/>
<path stroke="#80a6ff" vector-effect="non-scaling-stroke" d="
  M 305.00 283.46
  L 283.21 305.50"
/>
<path stroke="#6383dd" vector-effect="non-scaling-stroke" d="
  M 283.21 305.50
  L 261.50 326.96"
/>
<path stroke="#9575b6" vector-effect="non-scaling-stroke" d="
  M 125.29 462.75
  L 103.87 440.93"
/>
<path stroke="#abc7cc" vector-effect="non-scaling-stroke" d="
  M 507.00 486.29
  Q 506.44 486.19 506.26 486.26
  Q 480.74 496.41 459.28 480.17"
/>
<path stroke="#abc7cc" vector-effect="non-scaling-stroke" d="
  M 452.86 474.60
  L 423.50 445.54"
/>
<path stroke="#c8e9ee" vector-effect="non-scaling-stroke" d="
  M 423.50 445.54
  Q 423.98 445.56 424.17 445.17
  Q 431.14 431.28 445.15 424.11
  A 0.30 0.30 0.0 0 0 445.23 423.63
  L 305.00 283.46"
/>
<path stroke="#b9d8dd" vector-effect="non-scaling-stroke" d="
  M 423.50 445.54
  L 283.21 305.50"
/>
<path stroke="#ffad81" vector-effect="non-scaling-stroke" d="
  M 103.50 440.71
  Q 102.22 442.08 100.66 443.14
  Q 76.26 459.76 51.96 476.50"
/>
<path stroke="#a38875" vector-effect="non-scaling-stroke" d="
  M 51.96 476.50
  L 24.71 449.25"
/>
<path stroke="#946250" vector-effect="non-scaling-stroke" d="
  M 63.00 487.29
  L 52.00 476.71"
/>
<path stroke="#a37361" vector-effect="non-scaling-stroke" d="
  M 52.00 476.71
  Q 51.98 476.60 51.96 476.50"
/>
<path stroke="#383d43" vector-effect="non-scaling-stroke" d="
  M 52.00 476.71
  L 10.97 504.58
  Q 10.77 504.71 10.75 504.96
  Q 10.74 505.11 10.71 505.25"
/>
</g>
<path fill="#809399" d="
  M 120.56 0.00
  L 126.31 0.00
  Q 175.95 1.98 211.00 36.46
  L 178.22 69.20
  L 110.82 1.94
  Q 110.50 1.61 110.50 1.16
  L 110.50 0.79
  L 120.56 0.00
  Z"
/>
<path fill="#637176" d="
  M 446.56 0.00
  L 450.56 0.00
  C 465.67 1.56 474.17 12.52 485.79 24.75
  L 485.63 25.22
  Q 485.47 25.69 485.76 26.08
  Q 487.29 28.14 487.52 28.81
  Q 495.13 50.23 478.52 66.28
  Q 463.62 80.67 415.74 129.25
  Q 415.64 129.36 415.50 129.32
  Q 415.35 129.28 415.25 129.29
  C 413.93 129.27 365.83 80.42 360.50 75.21
  Q 393.79 41.77 427.19 8.44
  Q 434.58 1.06 446.56 0.00
  Z"
/>
<path fill="#637176" d="
  M 110.50 0.79
  L 110.50 1.16
  Q 110.50 1.61 110.82 1.94
  L 178.22 69.20
  L 156.29 91.25
  Q 121.26 56.05 86.08 20.98
  Q 82.25 17.15 81.62 14.66
  C 80.52 10.32 83.19 6.95 87.39 5.59
  Q 98.66 1.93 110.50 0.79
  Z"
/>
<path fill="#464e54" d="
  M 485.79 24.75
  C 496.98 35.77 510.79 45.68 512.00 62.31
  L 512.00 64.81
  C 511.28 75.47 507.11 81.27 499.11 89.28
  Q 468.10 120.33 437.00 151.29
  L 415.29 129.75
  L 415.25 129.29
  Q 415.35 129.28 415.50 129.32
  Q 415.64 129.36 415.74 129.25
  Q 463.62 80.67 478.52 66.28
  Q 495.13 50.23 487.52 28.81
  Q 487.29 28.14 485.76 26.08
  Q 485.47 25.69 485.63 25.22
  L 485.79 24.75
  Z"
/>
<path fill="#9cb5bb" d="
  M 211.00 36.46
  C 230.33 55.79 241.64 80.38 245.61 107.31
  Q 246.51 113.43 247.15 127.24
  Q 248.49 156.00 250.75 184.71
  Q 218.21 217.33 185.68 249.95
  C 185.31 250.32 184.95 250.37 184.50 250.54
  Q 156.16 248.89 127.82 247.57
  Q 113.77 246.92 107.88 246.10
  C 81.25 242.41 55.10 230.33 36.25 210.79
  Q 37.19 210.44 37.56 210.06
  Q 63.62 184.00 89.69 157.94
  Q 90.45 157.19 90.54 156.75
  Q 90.59 156.75 90.65 156.75
  Q 90.75 156.75 90.83 156.67
  L 156.29 91.25
  L 178.22 69.20
  L 211.00 36.46
  Z
  M 156.25 134.96
  L 134.21 157.00
  Q 125.99 164.96 118.03 173.19
  C 110.91 180.56 123.33 189.30 128.06 193.92
  C 133.10 198.84 136.96 197.60 141.72 192.89
  Q 149.04 185.65 156.25 178.29
  L 178.04 156.50
  Q 185.84 148.92 193.43 141.12
  C 201.71 132.61 190.28 124.98 184.72 119.66
  C 181.23 116.32 177.16 114.59 173.25 117.99
  Q 166.23 124.08 156.25 134.96
  Z"
/>
<path fill="#d6faff" d="
  M 360.50 75.21
  C 365.83 80.42 413.93 129.27 415.25 129.29
  L 415.29 129.75
  L 386.25 158.79
  L 331.46 104.25
  L 360.50 75.21
  Z"
/>
<path fill="#809399" d="
  M 90.54 156.75
  Q 90.45 157.19 89.69 157.94
  Q 63.62 184.00 37.56 210.06
  Q 37.19 210.44 36.25 210.79
  Q 2.02 176.12 0.00 126.94
  L 0.00 120.19
  Q 0.69 105.34 4.44 91.06
  C 6.74 82.29 12.42 78.56 19.66 85.78
  Q 55.16 121.22 90.54 156.75
  Z"
/>
<path fill="#2275ff" d="
  M 331.46 104.25
  L 386.25 158.79
  Q 386.23 158.90 386.21 159.00
  Q 386.06 158.99 385.93 159.01
  Q 385.79 159.02 385.69 159.12
  L 103.87 440.93
  Q 103.60 440.73 103.50 440.71
  L 49.17 386.57
  Q 116.57 318.97 184.19 251.44
  Q 184.38 251.24 184.50 250.54
  C 184.95 250.37 185.31 250.32 185.68 249.95
  Q 218.21 217.33 250.75 184.71
  L 331.46 104.25
  Z"
/>
<path fill="#b9d8dd" d="
  M 178.04 156.50
  L 156.25 134.96
  Q 166.23 124.08 173.25 117.99
  C 177.16 114.59 181.23 116.32 184.72 119.66
  C 190.28 124.98 201.71 132.61 193.43 141.12
  Q 185.84 148.92 178.04 156.50
  Z"
/>
<path fill="#adf5ff" d="
  M 415.29 129.75
  L 437.00 151.29
  L 407.75 180.54
  L 386.21 159.00
  Q 386.23 158.90 386.25 158.79
  L 415.29 129.75
  Z"
/>
<path fill="#d6faff" d="
  M 156.25 134.96
  L 178.04 156.50
  L 156.25 178.29
  Q 146.50 169.02 137.19 159.31
  Q 136.44 158.53 134.21 157.00
  L 156.25 134.96
  Z"
/>
<path fill="#b9d8dd" d="
  M 134.21 157.00
  Q 136.44 158.53 137.19 159.31
  Q 146.50 169.02 156.25 178.29
  Q 149.04 185.65 141.72 192.89
  C 136.96 197.60 133.10 198.84 128.06 193.92
  C 123.33 189.30 110.91 180.56 118.03 173.19
  Q 125.99 164.96 134.21 157.00
  Z"
/>
<path fill="#2a51ff" d="
  M 386.21 159.00
  L 407.75 180.54
  Q 345.52 243.01 328.06 260.31
  Q 327.26 261.11 327.21 261.75
  Q 327.08 261.78 326.92 261.77
  Q 326.59 261.74 326.36 261.97
  L 305.00 283.46
  L 283.21 305.50
  L 261.50 326.96
  L 125.29 462.75
  L 103.87 440.93
  L 385.69 159.12
  Q 385.79 159.02 385.93 159.01
  Q 386.06 158.99 386.21 159.00
  Z"
/>
<path fill="#b9d8dd" d="
  M 327.21 261.75
  Q 411.47 345.55 495.25 429.84
  C 505.75 440.41 511.24 449.69 512.00 464.31
  L 512.00 466.56
  Q 511.65 477.00 507.00 486.29
  Q 506.44 486.19 506.26 486.26
  Q 480.74 496.41 459.28 480.17
  Q 466.23 482.04 471.82 479.52
  C 478.89 476.33 482.52 468.67 480.21 461.14
  C 473.96 440.85 441.58 451.65 452.86 474.60
  L 423.50 445.54
  Q 423.98 445.56 424.17 445.17
  Q 431.14 431.28 445.15 424.11
  A 0.30 0.30 0.0 0 0 445.23 423.63
  L 305.00 283.46
  L 326.36 261.97
  Q 326.59 261.74 326.92 261.77
  Q 327.08 261.78 327.21 261.75
  Z"
/>
<path fill="#d6faff" d="
  M 305.00 283.46
  L 445.23 423.63
  A 0.30 0.30 0.0 0 1 445.15 424.11
  Q 431.14 431.28 424.17 445.17
  Q 423.98 445.56 423.50 445.54
  L 283.21 305.50
  L 305.00 283.46
  Z"
/>
<path fill="#9cb5bb" d="
  M 283.21 305.50
  L 423.50 445.54
  L 452.86 474.60
  L 459.28 480.17
  Q 480.74 496.41 506.26 486.26
  Q 506.44 486.19 507.00 486.29
  Q 494.27 510.13 466.94 512.00
  L 464.19 512.00
  Q 445.32 510.82 431.00 496.50
  Q 346.25 411.73 261.50 326.96
  L 283.21 305.50
  Z"
/>
<path fill="#ffc295" d="
  M 49.17 386.57
  L 103.50 440.71
  Q 102.22 442.08 100.66 443.14
  Q 76.26 459.76 51.96 476.50
  L 24.71 449.25
  L 49.17 386.57
  Z"
/>
<path fill="#ff986d" d="
  M 103.50 440.71
  Q 103.60 440.73 103.87 440.93
  L 125.29 462.75
  L 63.00 487.29
  L 52.00 476.71
  Q 51.98 476.60 51.96 476.50
  Q 76.26 459.76 100.66 443.14
  Q 102.22 442.08 103.50 440.71
  Z"
/>
<path fill="#464e54" d="
  M 24.71 449.25
  L 51.96 476.50
  Q 51.98 476.60 52.00 476.71
  L 10.97 504.58
  Q 10.77 504.71 10.75 504.96
  Q 10.74 505.11 10.71 505.25
  C 5.42 503.02 5.30 498.81 7.21 493.81
  Q 15.74 471.44 24.71 449.25
  Z"
/>
<path fill="#292c32" d="
  M 52.00 476.71
  L 63.00 487.29
  Q 31.28 500.05 14.94 505.94
  Q 12.98 506.64 10.71 505.25
  Q 10.74 505.11 10.75 504.96
  Q 10.77 504.71 10.97 504.58
  L 52.00 476.71
  Z"
/>
</svg>
