<?xml version="1.0" encoding="UTF-8" standalone="no"?>
<!DOCTYPE svg PUBLIC "-//W3C//DTD SVG 1.1//EN" "http://www.w3.org/Graphics/SVG/1.1/DTD/svg11.dtd">
<svg xmlns="http://www.w3.org/2000/svg" version="1.1" viewBox="0 0 512 512">
  <g stroke-width="2.00" fill="none" stroke-linecap="butt">
    <path stroke="#00347a" vector-effect="non-scaling-stroke"
      d="
  M 254.50 57.54
  Q 256.01 57.88 256.00 59.25
  Q 255.81 84.61 256.25 109.96"
    />
    <path stroke="#004aac" vector-effect="non-scaling-stroke"
      d="
  M 256.25 109.96
  L 255.50 110.54"
    />
    <path stroke="#0258cd" vector-effect="non-scaling-stroke"
      d="
  M 255.50 110.54
  L 78.04 110.25"
    />
    <path stroke="#003c8b" vector-effect="non-scaling-stroke"
      d="
  M 433.96 109.75
  L 256.25 109.96"
    />
    <path stroke="#003c8b" vector-effect="non-scaling-stroke"
      d="
  M 442.96 141.00
  L 256.38 140.82"
    />
    <path stroke="#004aac" vector-effect="non-scaling-stroke"
      d="
  M 256.38 140.82
  L 255.35 140.50"
    />
    <path stroke="#0260de" vector-effect="non-scaling-stroke"
      d="
  M 255.35 140.50
  Q 256.49 125.90 255.86 111.33
  Q 255.85 111.08 255.71 110.87
  L 255.50 110.54"
    />
    <path stroke="#0258cd" vector-effect="non-scaling-stroke"
      d="
  M 255.35 140.50
  L 69.29 140.50"
    />
    <path stroke="#00347a" vector-effect="non-scaling-stroke"
      d="
  M 256.38 140.82
  Q 255.72 172.16 256.08 203.59
  Q 256.08 203.84 256.27 204.01
  L 256.50 204.21"
    />
    <path stroke="#004aac" vector-effect="non-scaling-stroke"
      d="
  M 256.50 204.21
  L 255.81 204.60"
    />
    <path stroke="#0258cd" vector-effect="non-scaling-stroke"
      d="
  M 255.81 204.60
  L 50.86 204.52
  Q 50.82 204.52 50.81 204.48
  Q 50.76 204.34 50.71 204.25"
    />
    <path stroke="#003c8b" vector-effect="non-scaling-stroke"
      d="
  M 461.50 204.21
  L 256.50 204.21"
    />
    <path stroke="#0260de" vector-effect="non-scaling-stroke"
      d="
  M 255.81 204.60
  L 255.93 293.84
  A 0.67 0.66 -0.0 0 1 255.26 294.50
  L 48.00 294.50
  Q 47.82 294.50 47.78 294.61
  Q 47.77 294.67 47.75 294.71"
    />
    <path stroke="#6888c6" vector-effect="non-scaling-stroke"
      d="
  M 236.29 365.25
  Q 238.52 379.99 236.82 394.81
  Q 236.81 394.93 236.88 395.03
  Q 236.96 395.14 237.04 395.25"
    />
    <path stroke="#6888c6" vector-effect="non-scaling-stroke"
      d="
  M 32.46 395.25
  Q 34.08 379.85 39.21 365.25"
    />
    <path stroke="#5b6da1" vector-effect="non-scaling-stroke"
      d="
  M 473.00 365.21
  Q 472.64 365.38 472.78 365.74
  Q 478.06 379.58 479.22 394.36
  Q 479.25 394.69 479.48 394.93
  L 479.75 395.21"
    />
    <path stroke="#5b6da1" vector-effect="non-scaling-stroke"
      d="
  M 274.75 395.29
  Q 275.29 395.33 275.25 395.00
  Q 273.31 379.64 275.96 365.00"
    />
    <path stroke="#c3c1ec" vector-effect="non-scaling-stroke"
      d="
  M 256.00 395.21
  L 255.75 365.29"
    />
  </g>
  <path fill="#00429b"
    d="
  M 254.50 57.54
  Q 256.01 57.88 256.00 59.25
  Q 255.81 84.61 256.25 109.96
  L 255.50 110.54
  L 78.04 110.25
  Q 93.30 57.84 97.43 43.93
  C 103.23 24.38 122.98 12.31 143.04 17.10
  Q 146.57 17.94 160.71 24.08
  Q 186.23 35.15 211.71 46.34
  C 225.90 52.57 238.72 57.31 254.50 57.54
  Z"
  />
  <path fill="#002659"
    d="
  M 433.96 109.75
  L 256.25 109.96
  Q 255.81 84.61 256.00 59.25
  Q 256.01 57.88 254.50 57.54
  Q 274.15 57.51 293.73 48.96
  Q 321.38 36.90 349.06 24.91
  Q 365.77 17.67 367.47 17.20
  C 388.04 11.41 408.62 23.64 414.72 44.21
  Q 424.43 76.96 433.96 109.75
  Z"
  />
  <path fill="#0051bd"
    d="
  M 433.96 109.75
  Q 438.95 125.23 442.96 141.00
  L 256.38 140.82
  L 255.35 140.50
  Q 256.49 125.90 255.86 111.33
  Q 255.85 111.08 255.71 110.87
  L 255.50 110.54
  L 256.25 109.96
  L 433.96 109.75
  Z"
  />
  <path fill="#046eff"
    d="
  M 78.04 110.25
  L 255.50 110.54
  L 255.71 110.87
  Q 255.85 111.08 255.86 111.33
  Q 256.49 125.90 255.35 140.50
  L 69.29 140.50
  Q 73.17 125.23 78.04 110.25
  Z"
  />
  <path fill="#00429b"
    d="
  M 69.29 140.50
  L 255.35 140.50
  L 256.38 140.82
  Q 255.72 172.16 256.08 203.59
  Q 256.08 203.84 256.27 204.01
  L 256.50 204.21
  L 255.81 204.60
  L 50.86 204.52
  Q 50.82 204.52 50.81 204.48
  Q 50.76 204.34 50.71 204.25
  L 69.29 140.50
  Z"
  />
  <path fill="#002659"
    d="
  M 256.38 140.82
  L 442.96 141.00
  L 461.50 204.21
  L 256.50 204.21
  L 256.27 204.01
  Q 256.08 203.84 256.08 203.59
  Q 255.72 172.16 256.38 140.82
  Z"
  />
  <path fill="#046eff"
    d="
  M 50.71 204.25
  Q 50.76 204.34 50.81 204.48
  Q 50.82 204.52 50.86 204.52
  L 255.81 204.60
  L 255.93 293.84
  A 0.67 0.66 -0.0 0 1 255.26 294.50
  L 48.00 294.50
  Q 47.82 294.50 47.78 294.61
  Q 47.77 294.67 47.75 294.71
  C 22.02 295.23 1.53 277.25 0.00 251.44
  L 0.00 247.69
  C 1.51 226.20 16.50 208.67 37.87 205.24
  C 41.53 204.65 46.40 204.82 50.71 204.25
  Z"
  />
  <path fill="#0051bd"
    d="
  M 256.50 204.21
  L 461.50 204.21
  C 488.39 204.18 508.01 217.93 512.00 245.31
  L 512.00 254.56
  C 508.73 278.37 489.52 295.08 465.50 295.06
  Q 256.63 294.86 47.75 294.71
  Q 47.77 294.67 47.78 294.61
  Q 47.82 294.50 48.00 294.50
  L 255.26 294.50
  A 0.67 0.66 -0.0 0 0 255.93 293.84
  L 255.81 204.60
  L 256.50 204.21
  Z"
  />
  <path fill="#00429b"
    d="
  M 236.29 365.25
  Q 238.52 379.99 236.82 394.81
  Q 236.81 394.93 236.88 395.03
  Q 236.96 395.14 237.04 395.25
  L 236.82 395.58
  Q 236.67 395.80 236.63 396.07
  C 231.21 429.59 209.45 459.19 181.52 477.74
  C 113.44 522.96 27.54 478.96 32.46 395.25
  Q 34.08 379.85 39.21 365.25
  C 52.94 332.98 81.27 315.82 115.94 314.55
  Q 144.07 313.51 170.50 316.25
  C 197.26 319.02 222.68 329.53 232.98 356.40
  Q 234.68 360.83 236.29 365.25
  Z"
  />
  <path fill="#002659"
    d="
  M 473.00 365.21
  Q 472.64 365.38 472.78 365.74
  Q 478.06 379.58 479.22 394.36
  Q 479.25 394.69 479.48 394.93
  L 479.75 395.21
  L 479.47 395.41
  Q 479.22 395.58 479.25 395.89
  C 484.19 452.90 438.11 501.02 380.26 495.57
  C 329.53 490.79 283.59 446.79 275.41 396.15
  Q 275.36 395.82 275.11 395.61
  L 274.75 395.29
  Q 275.29 395.33 275.25 395.00
  Q 273.31 379.64 275.96 365.00
  C 285.53 329.71 314.37 318.17 347.68 315.58
  Q 369.11 313.91 392.25 314.29
  C 427.87 314.89 457.93 330.92 472.24 364.36
  Q 472.38 364.67 472.63 364.89
  L 473.00 365.21
  Z"
  />
  <path fill="#b6b4e8"
    d="
  M 275.96 365.00
  Q 273.31 379.64 275.25 395.00
  Q 275.29 395.33 274.75 395.29
  L 256.00 395.21
  L 255.75 365.29
  L 275.96 365.00
  Z"
  />
  <path fill="#d0cef0"
    d="
  M 39.21 365.25
  Q 34.08 379.85 32.46 395.25
  C 20.11 395.21 3.24 398.72 0.00 381.69
  L 0.00 378.44
  C 2.07 368.36 8.65 365.25 18.32 365.25
  Q 28.76 365.25 39.21 365.25
  Z"
  />
  <path fill="#d0cef0"
    d="
  M 236.29 365.25
  L 255.75 365.29
  L 256.00 395.21
  L 237.04 395.25
  Q 236.96 395.14 236.88 395.03
  Q 236.81 394.93 236.82 394.81
  Q 238.52 379.99 236.29 365.25
  Z"
  />
  <path fill="#b6b4e8"
    d="
  M 473.00 365.21
  Q 483.07 365.27 493.13 365.26
  C 503.24 365.25 510.10 368.10 512.00 378.81
  L 512.00 381.56
  C 508.96 398.44 492.34 395.38 479.75 395.21
  L 479.48 394.93
  Q 479.25 394.69 479.22 394.36
  Q 478.06 379.58 472.78 365.74
  Q 472.64 365.38 473.00 365.21
  Z"
  />
</svg>