<?xml version="1.0" encoding="UTF-8" standalone="no"?>
<!DOCTYPE svg PUBLIC "-//W3C//DTD SVG 1.1//EN" "http://www.w3.org/Graphics/SVG/1.1/DTD/svg11.dtd">
<svg xmlns="http://www.w3.org/2000/svg" version="1.1" viewBox="0 0 512 512">
  <g stroke-width="2.00" fill="none" stroke-linecap="butt">
    <path stroke="#0d244e" vector-effect="non-scaling-stroke"
      d="
  M 180.97 128.96
  C 60.55 186.46 44.59 351.50 152.24 430.04
  C 219.43 479.06 311.97 474.39 373.75 418.54"
    />
    <path stroke="#16335d" vector-effect="non-scaling-stroke"
      d="
  M 373.75 418.54
  C 447.51 351.28 452.03 236.80 381.54 164.75
  A 0.30 0.29 38.0 0 0 381.08 164.80
  L 363.62 192.49"
    />
    <path stroke="#1f446f" vector-effect="non-scaling-stroke"
      d="
  M 363.62 192.49
  Q 357.83 200.92 352.84 208.98
  C 347.09 218.27 342.49 217.90 334.95 210.34
  Q 317.98 193.33 300.98 176.37
  C 289.33 164.74 301.12 160.60 309.79 154.75"
    />
    <path stroke="#16335d" vector-effect="non-scaling-stroke"
      d="
  M 309.79 154.75
  L 341.32 134.70
  Q 341.75 134.42 341.30 134.17
  C 291.47 106.99 232.52 104.53 180.97 128.96"
    />
    <path stroke="#3577cc" vector-effect="non-scaling-stroke"
      d="
  M 309.79 154.75
  Q 303.21 151.38 296.04 149.50"
    />
    <path stroke="#16335d" vector-effect="non-scaling-stroke"
      d="
  M 296.04 149.50
  L 297.98 142.50
  Q 298.11 142.02 297.63 141.88
  C 248.56 127.97 197.15 139.42 158.00 171.79"
    />
    <path stroke="#2357ab" vector-effect="non-scaling-stroke"
      d="
  M 158.00 171.79
  Q 157.18 171.63 157.55 170.77
  Q 166.96 148.64 180.97 128.96"
    />
    <path stroke="#3577cc" vector-effect="non-scaling-stroke"
      d="
  M 363.62 192.49
  Q 404.43 239.10 399.45 301.69
  Q 398.76 310.38 394.81 327.94"
    />
    <path stroke="#1f446f" vector-effect="non-scaling-stroke"
      d="
  M 394.81 327.94
  L 384.49 327.98
  A 0.48 0.48 0.0 0 1 384.00 327.50
  L 384.00 248.50
  Q 384.00 248.00 383.50 248.00
  L 368.51 248.00
  Q 368.01 248.00 368.01 248.51
  Q 367.98 290.19 368.01 331.86
  C 368.02 347.09 377.92 343.90 388.75 344.04"
    />
    <path stroke="#3577cc" vector-effect="non-scaling-stroke"
      d="
  M 388.75 344.04
  Q 385.40 352.33 380.50 359.79"
    />
    <path stroke="#1f446f" vector-effect="non-scaling-stroke"
      d="
  M 380.50 359.79
  L 374.28 356.26
  Q 373.81 355.99 373.53 356.46
  Q 343.54 405.90 287.25 420.21"
    />
    <path stroke="#3980d5" vector-effect="non-scaling-stroke"
      d="
  M 287.25 420.21
  Q 286.52 420.03 286.27 419.57
  Q 286.04 419.16 285.59 419.04
  Q 217.25 401.89 176.61 344.62
  Q 176.35 344.26 175.96 344.00"
    />
    <path stroke="#1f446f" vector-effect="non-scaling-stroke"
      d="
  M 175.96 344.00
  L 175.98 300.06
  Q 175.98 299.60 176.34 299.31
  L 187.40 290.19
  A 0.32 0.32 0.0 0 1 187.89 290.29
  L 216.69 347.06
  Q 216.89 347.45 217.28 347.26
  L 230.51 340.61
  A 0.54 0.54 0.0 0 0 230.75 339.89
  L 200.34 279.90
  Q 200.14 279.50 200.49 279.22
  L 220.57 262.51
  Q 220.96 262.18 220.64 261.80
  L 211.24 250.40
  Q 210.90 249.99 210.48 250.33
  L 176.61 278.57
  A 0.37 0.37 0.0 0 1 176.00 278.28
  L 176.00 248.50
  Q 176.00 248.00 175.50 248.00
  L 160.51 248.00
  Q 159.99 248.00 159.99 248.52
  L 159.96 312.50"
    />
    <path stroke="#3980d5" vector-effect="non-scaling-stroke"
      d="
  M 159.96 312.50
  L 159.24 312.20
  Q 158.78 312.01 158.58 311.54
  Q 148.95 288.84 145.67 264.39
  C 145.55 263.45 146.15 262.42 144.68 261.90
  Q 144.21 261.73 144.25 261.23
  Q 144.32 260.32 144.04 259.50"
    />
    <path stroke="#1f446f" vector-effect="non-scaling-stroke"
      d="
  M 144.04 259.50
  L 143.87 247.96"
    />
    <path stroke="#3980d5" vector-effect="non-scaling-stroke"
      d="
  M 143.87 247.96
  Q 144.06 227.91 146.26 207.96"
    />
    <path stroke="#1f446f" vector-effect="non-scaling-stroke"
      d="
  M 296.04 149.50
  L 293.92 156.78
  Q 293.76 157.32 293.22 157.17
  C 237.79 142.24 180.09 161.51 146.26 207.96"
    />
    <path stroke="#1a3c66" vector-effect="non-scaling-stroke"
      d="
  M 146.26 207.96
  Q 134.53 223.75 128.09 241.96
  A 0.84 0.84 0.0 0 1 127.01 242.47
  L 120.04 240.00"
    />
    <path stroke="#0d244e" vector-effect="non-scaling-stroke"
      d="
  M 158.00 171.79
  Q 126.90 198.35 112.90 236.80
  Q 112.71 237.32 113.23 237.51
  L 120.04 240.00"
    />
    <path stroke="#2760b4" vector-effect="non-scaling-stroke"
      d="
  M 120.04 240.00
  L 117.75 247.96"
    />
    <path stroke="#0d244e" vector-effect="non-scaling-stroke"
      d="
  M 117.75 247.96
  C 110.43 247.99 96.22 245.33 96.03 257.01
  Q 95.88 265.90 96.05 295.93
  C 96.11 304.71 107.17 304.33 113.00 304.04"
    />
    <path stroke="#2760b4" vector-effect="non-scaling-stroke"
      d="
  M 113.00 304.04
  Q 114.20 315.55 117.36 326.67
  C 117.42 326.86 117.30 327.51 117.25 327.71"
    />
    <path stroke="#0d244e" vector-effect="non-scaling-stroke"
      d="
  M 117.25 327.71
  L 96.56 327.94
  Q 96.00 327.95 96.00 328.50
  L 96.00 343.50
  A 0.51 0.51 0.0 0 0 96.51 344.01
  L 123.50 344.04"
    />
    <path stroke="#2760b4" vector-effect="non-scaling-stroke"
      d="
  M 123.50 344.04
  L 131.04 360.00"
    />
    <path stroke="#0d244e" vector-effect="non-scaling-stroke"
      d="
  M 131.04 360.00
  L 124.86 363.71
  Q 124.47 363.94 124.70 364.34
  C 165.98 434.25 253.04 460.15 325.75 423.04"
    />
    <path stroke="#2357ab" vector-effect="non-scaling-stroke"
      d="
  M 325.75 423.04
  C 326.53 427.12 366.91 419.89 372.50 418.52
  Q 372.90 418.42 373.75 418.54"
    />
    <path stroke="#1a3c66" vector-effect="non-scaling-stroke"
      d="
  M 175.96 344.00
  L 160.56 344.01
  Q 160.00 344.01 160.00 343.45
  L 159.96 312.50"
    />
    <path stroke="#1a3c66" vector-effect="non-scaling-stroke"
      d="
  M 287.25 420.21
  C 227.98 434.05 170.21 408.02 138.49 356.58
  Q 138.20 356.12 137.72 356.38
  L 131.04 360.00"
    />
    <path stroke="#1a3c66" vector-effect="non-scaling-stroke"
      d="
  M 144.04 259.50
  L 144.00 263.29
  Q 143.99 264.00 143.28 264.00
  L 112.77 264.00
  Q 112.28 264.00 112.28 264.48
  L 112.01 287.55
  A 0.46 0.46 0.0 0 0 112.47 288.01
  Q 122.21 287.97 131.94 288.01
  C 138.81 288.04 143.83 289.27 143.97 297.01
  Q 144.10 304.66 143.98 331.26
  C 143.95 338.54 143.07 343.81 134.73 343.92
  Q 129.14 344.00 123.50 344.04"
    />
    <path stroke="#1a3c66" vector-effect="non-scaling-stroke"
      d="
  M 117.25 327.71
  Q 122.21 328.32 127.41 327.90
  Q 128.00 327.85 128.00 327.26
  L 128.00 304.72
  Q 128.00 304.05 127.33 304.05
  L 113.00 304.04"
    />
    <path stroke="#1a3c66" vector-effect="non-scaling-stroke"
      d="
  M 143.87 247.96
  L 117.75 247.96"
    />
    <path stroke="#16335d" vector-effect="non-scaling-stroke"
      d="
  M 325.75 423.04
  Q 364.94 402.55 387.30 364.48
  Q 387.57 364.01 387.10 363.73
  L 380.50 359.79"
    />
    <path stroke="#16335d" vector-effect="non-scaling-stroke"
      d="
  M 388.75 344.04
  L 415.49 344.00
  Q 416.00 344.00 416.00 343.49
  L 416.00 328.51
  Q 416.00 328.00 415.49 328.00
  L 394.81 327.94"
    />
    <path stroke="#7a6228" vector-effect="non-scaling-stroke"
      d="
  M 362.92 140.33
  L 317.12 169.24
  A 0.29 0.29 0.0 0 0 317.07 169.69
  L 342.19 194.81
  Q 342.56 195.18 342.84 194.74
  L 348.21 186.01"
    />
    <path stroke="#7e7530" vector-effect="non-scaling-stroke"
      d="
  M 348.21 186.01
  L 387.51 124.65
  A 0.10 0.10 0.0 0 0 387.37 124.52
  L 362.92 140.33"
    />
    <path stroke="#f8d658" vector-effect="non-scaling-stroke"
      d="
  M 348.21 186.01
  Q 342.93 158.87 362.92 140.33"
    />
    <path stroke="#1f446f" vector-effect="non-scaling-stroke"
      d="
  M 272.00 264.43
  A 0.43 0.43 0.0 0 1 272.43 264.00
  L 287.57 264.00
  A 0.43 0.43 0.0 0 0 288.00 263.57
  L 288.00 248.43
  A 0.43 0.43 0.0 0 0 287.57 248.00
  L 240.43 248.00
  A 0.43 0.43 0.0 0 0 240.00 248.43
  L 240.00 263.57
  A 0.43 0.43 0.0 0 0 240.43 264.00
  L 255.57 264.00
  A 0.43 0.43 0.0 0 1 256.00 264.43
  L 256.00 327.57
  A 0.43 0.43 0.0 0 1 255.57 328.00
  L 240.43 328.00
  A 0.43 0.43 0.0 0 0 240.00 328.43
  L 240.00 343.57
  A 0.43 0.43 0.0 0 0 240.43 344.00
  L 287.57 344.00
  A 0.43 0.43 0.0 0 0 288.00 343.57
  L 288.00 328.43
  A 0.43 0.43 0.0 0 0 287.57 328.00
  L 272.43 328.00
  A 0.43 0.43 0.0 0 1 272.00 327.57
  L 272.00 264.43"
    />
    <path stroke="#1f446f" vector-effect="non-scaling-stroke"
      d="
  M 304.20 335.68
  C 304.22 340.98 308.15 343.95 313.26 343.97
  Q 332.36 344.04 351.50 343.98
  Q 352.00 343.98 352.00 343.49
  L 352.00 328.50
  A 0.50 0.50 0.0 0 0 351.50 328.00
  L 320.50 328.00
  A 0.50 0.50 0.0 0 1 320.00 327.50
  L 320.00 248.50
  Q 320.00 248.00 319.50 248.00
  L 304.51 248.00
  Q 303.98 248.00 303.98 248.52
  Q 303.97 292.12 304.20 335.68"
    />
  </g>
  <rect fill="#000000" x="-8.16" y="-8.18" transform="translate(241.14,40.50) rotate(-3.8)"
    width="16.32" height="16.36" rx="0.83" />
  <path fill="#000000"
    d="
  M 279.84 49.26
  L 265.45 48.42
  A 0.66 0.66 0.0 0 1 264.83 47.74
  L 265.18 32.54
  A 0.66 0.66 0.0 0 1 265.89 31.89
  L 281.43 33.11
  A 0.66 0.66 0.0 0 1 282.03 33.83
  L 280.53 48.67
  A 0.66 0.66 0.0 0 1 279.84 49.26
  Z"
  />
  <rect fill="#000000" x="-8.18" y="-8.17" transform="translate(209.48,44.58) rotate(-11.2)"
    width="16.36" height="16.34" rx="0.82" />
  <path fill="#000000"
    d="
  M 310.16 54.47
  L 296.06 51.57
  A 0.69 0.69 0.0 0 1 295.52 50.78
  L 298.05 36.06
  A 0.69 0.69 0.0 0 1 298.87 35.50
  L 314.02 38.58
  A 0.69 0.69 0.0 0 1 314.55 39.42
  L 310.97 53.96
  A 0.69 0.69 0.0 0 1 310.16 54.47
  Z"
  />
  <path fill="#000000"
    d="
  M 168.61 47.64
  L 183.28 42.63
  A 0.68 0.68 0.0 0 1 184.15 43.07
  L 188.51 57.41
  A 0.68 0.68 0.0 0 1 188.08 58.25
  L 174.32 62.93
  A 0.68 0.68 0.0 0 1 173.47 62.52
  L 168.20 48.53
  A 0.68 0.68 0.0 0 1 168.61 47.64
  Z"
  />
  <path fill="#000000"
    d="
  M 339.71 63.70
  L 326.01 58.84
  A 0.63 0.63 0.0 0 1 325.62 58.06
  L 330.11 43.68
  A 0.63 0.63 0.0 0 1 330.92 43.28
  L 345.63 48.42
  A 0.63 0.63 0.0 0 1 346.01 49.25
  L 340.50 63.33
  A 0.63 0.63 0.0 0 1 339.71 63.70
  Z"
  />
  <rect fill="#000000" x="-8.18" y="-8.14" transform="translate(149.06,65.20) rotate(-26.7)"
    width="16.36" height="16.28" rx="0.44" />
  <rect fill="#000000" x="-8.15" y="-8.15" transform="translate(364.94,66.15) rotate(27.1)"
    width="16.30" height="16.30" rx="0.43" />
  <rect fill="#000000" x="-8.17" y="-8.15" transform="translate(121.45,81.32) rotate(-34.2)"
    width="16.34" height="16.30" rx="0.63" />
  <path fill="#000000"
    d="
  M 390.61 71.42
  L 403.36 80.22
  A 0.67 0.67 0.0 0 1 403.52 81.17
  L 394.56 93.25
  A 0.67 0.67 0.0 0 1 393.64 93.40
  L 381.74 85.15
  A 0.67 0.67 0.0 0 1 381.56 84.24
  L 389.67 71.61
  A 0.67 0.67 0.0 0 1 390.61 71.42
  Z"
  />
  <rect fill="#000000" x="-8.17" y="-8.15" transform="translate(96.25,101.00) rotate(-41.8)"
    width="16.34" height="16.30" rx="0.86" />
  <rect fill="#000000" x="-8.18" y="-8.18" transform="translate(417.37,102.43) rotate(42.5)"
    width="16.36" height="16.36" rx="0.73" />
  <path fill="#000000"
    d="
  M 395.71 156.30
  C 467.44 233.15 465.22 353.32 388.70 426.58
  C 284.43 526.41 109.98 478.59 71.41 338.95
  C 38.56 219.99 125.46 101.27 249.01 96.39
  C 286.93 94.89 323.91 104.75 356.34 124.49
  A 1.08 1.07 44.4 0 0 357.49 124.48
  Q 372.53 114.89 387.58 105.34
  C 394.69 100.83 400.37 108.98 404.89 113.57
  Q 410.21 118.98 406.23 125.22
  Q 398.40 137.51 390.45 149.85
  A 1.18 1.18 0.0 0 0 390.65 151.36
  Q 393.66 154.10 395.71 156.30
  Z
  M 180.97 128.96
  C 60.55 186.46 44.59 351.50 152.24 430.04
  C 219.43 479.06 311.97 474.39 373.75 418.54
  C 447.51 351.28 452.03 236.80 381.54 164.75
  A 0.30 0.29 38.0 0 0 381.08 164.80
  L 363.62 192.49
  Q 357.83 200.92 352.84 208.98
  C 347.09 218.27 342.49 217.90 334.95 210.34
  Q 317.98 193.33 300.98 176.37
  C 289.33 164.74 301.12 160.60 309.79 154.75
  L 341.32 134.70
  Q 341.75 134.42 341.30 134.17
  C 291.47 106.99 232.52 104.53 180.97 128.96
  Z
  M 362.92 140.33
  L 317.12 169.24
  A 0.29 0.29 0.0 0 0 317.07 169.69
  L 342.19 194.81
  Q 342.56 195.18 342.84 194.74
  L 348.21 186.01
  L 387.51 124.65
  A 0.10 0.10 0.0 0 0 387.37 124.52
  L 362.92 140.33
  Z"
  />
  <path fill="#2b66b9"
    d="
  M 309.79 154.75
  Q 303.21 151.38 296.04 149.50
  L 297.98 142.50
  Q 298.11 142.02 297.63 141.88
  C 248.56 127.97 197.15 139.42 158.00 171.79
  Q 157.18 171.63 157.55 170.77
  Q 166.96 148.64 180.97 128.96
  C 232.52 104.53 291.47 106.99 341.30 134.17
  Q 341.75 134.42 341.32 134.70
  L 309.79 154.75
  Z"
  />
  <rect fill="#000000" x="-8.16" y="-8.17" transform="translate(73.87,123.80) rotate(40.7)"
    width="16.32" height="16.34" rx="0.70" />
  <rect fill="#000000" x="-8.15" y="-8.16" transform="translate(439.52,125.45) rotate(-40.1)"
    width="16.30" height="16.32" rx="0.49" />
  <path fill="#fce95f"
    d="
  M 348.21 186.01
  Q 342.93 158.87 362.92 140.33
  L 387.37 124.52
  A 0.10 0.10 0.0 0 1 387.51 124.65
  L 348.21 186.01
  Z"
  />
  <path fill="#1a489c"
    d="
  M 180.97 128.96
  Q 166.96 148.64 157.55 170.77
  Q 157.18 171.63 158.00 171.79
  Q 126.90 198.35 112.90 236.80
  Q 112.71 237.32 113.23 237.51
  L 120.04 240.00
  L 117.75 247.96
  C 110.43 247.99 96.22 245.33 96.03 257.01
  Q 95.88 265.90 96.05 295.93
  C 96.11 304.71 107.17 304.33 113.00 304.04
  Q 114.20 315.55 117.36 326.67
  C 117.42 326.86 117.30 327.51 117.25 327.71
  L 96.56 327.94
  Q 96.00 327.95 96.00 328.50
  L 96.00 343.50
  A 0.51 0.51 0.0 0 0 96.51 344.01
  L 123.50 344.04
  L 131.04 360.00
  L 124.86 363.71
  Q 124.47 363.94 124.70 364.34
  C 165.98 434.25 253.04 460.15 325.75 423.04
  C 326.53 427.12 366.91 419.89 372.50 418.52
  Q 372.90 418.42 373.75 418.54
  C 311.97 474.39 219.43 479.06 152.24 430.04
  C 44.59 351.50 60.55 186.46 180.97 128.96
  Z"
  />
  <path fill="#000000"
    d="
  M 296.04 149.50
  L 293.92 156.78
  Q 293.76 157.32 293.22 157.17
  C 237.79 142.24 180.09 161.51 146.26 207.96
  Q 134.53 223.75 128.09 241.96
  A 0.84 0.84 0.0 0 1 127.01 242.47
  L 120.04 240.00
  L 113.23 237.51
  Q 112.71 237.32 112.90 236.80
  Q 126.90 198.35 158.00 171.79
  C 197.15 139.42 248.56 127.97 297.63 141.88
  Q 298.11 142.02 297.98 142.50
  L 296.04 149.50
  Z"
  />
  <rect fill="#000000" x="-8.16" y="-8.18" transform="translate(54.71,149.37) rotate(33.0)"
    width="16.32" height="16.36" rx="0.82" />
  <rect fill="#000000" x="-8.15" y="-8.17" transform="translate(458.48,151.24) rotate(-32.6)"
    width="16.30" height="16.34" rx="0.80" />
  <path fill="#f3c350"
    d="
  M 362.92 140.33
  Q 342.93 158.87 348.21 186.01
  L 342.84 194.74
  Q 342.56 195.18 342.19 194.81
  L 317.07 169.69
  A 0.29 0.29 0.0 0 1 317.12 169.24
  L 362.92 140.33
  Z"
  />
  <path fill="#3e88de"
    d="
  M 296.04 149.50
  Q 303.21 151.38 309.79 154.75
  C 301.12 160.60 289.33 164.74 300.98 176.37
  Q 317.98 193.33 334.95 210.34
  C 342.49 217.90 347.09 218.27 352.84 208.98
  Q 357.83 200.92 363.62 192.49
  Q 404.43 239.10 399.45 301.69
  Q 398.76 310.38 394.81 327.94
  L 384.49 327.98
  A 0.48 0.48 0.0 0 1 384.00 327.50
  L 384.00 248.50
  Q 384.00 248.00 383.50 248.00
  L 368.51 248.00
  Q 368.01 248.00 368.01 248.51
  Q 367.98 290.19 368.01 331.86
  C 368.02 347.09 377.92 343.90 388.75 344.04
  Q 385.40 352.33 380.50 359.79
  L 374.28 356.26
  Q 373.81 355.99 373.53 356.46
  Q 343.54 405.90 287.25 420.21
  Q 286.52 420.03 286.27 419.57
  Q 286.04 419.16 285.59 419.04
  Q 217.25 401.89 176.61 344.62
  Q 176.35 344.26 175.96 344.00
  L 175.98 300.06
  Q 175.98 299.60 176.34 299.31
  L 187.40 290.19
  A 0.32 0.32 0.0 0 1 187.89 290.29
  L 216.69 347.06
  Q 216.89 347.45 217.28 347.26
  L 230.51 340.61
  A 0.54 0.54 0.0 0 0 230.75 339.89
  L 200.34 279.90
  Q 200.14 279.50 200.49 279.22
  L 220.57 262.51
  Q 220.96 262.18 220.64 261.80
  L 211.24 250.40
  Q 210.90 249.99 210.48 250.33
  L 176.61 278.57
  A 0.37 0.37 0.0 0 1 176.00 278.28
  L 176.00 248.50
  Q 176.00 248.00 175.50 248.00
  L 160.51 248.00
  Q 159.99 248.00 159.99 248.52
  L 159.96 312.50
  L 159.24 312.20
  Q 158.78 312.01 158.58 311.54
  Q 148.95 288.84 145.67 264.39
  C 145.55 263.45 146.15 262.42 144.68 261.90
  Q 144.21 261.73 144.25 261.23
  Q 144.32 260.32 144.04 259.50
  L 143.87 247.96
  Q 144.06 227.91 146.26 207.96
  C 180.09 161.51 237.79 142.24 293.22 157.17
  Q 293.76 157.32 293.92 156.78
  L 296.04 149.50
  Z
  M 272.00 264.43
  A 0.43 0.43 0.0 0 1 272.43 264.00
  L 287.57 264.00
  A 0.43 0.43 0.0 0 0 288.00 263.57
  L 288.00 248.43
  A 0.43 0.43 0.0 0 0 287.57 248.00
  L 240.43 248.00
  A 0.43 0.43 0.0 0 0 240.00 248.43
  L 240.00 263.57
  A 0.43 0.43 0.0 0 0 240.43 264.00
  L 255.57 264.00
  A 0.43 0.43 0.0 0 1 256.00 264.43
  L 256.00 327.57
  A 0.43 0.43 0.0 0 1 255.57 328.00
  L 240.43 328.00
  A 0.43 0.43 0.0 0 0 240.00 328.43
  L 240.00 343.57
  A 0.43 0.43 0.0 0 0 240.43 344.00
  L 287.57 344.00
  A 0.43 0.43 0.0 0 0 288.00 343.57
  L 288.00 328.43
  A 0.43 0.43 0.0 0 0 287.57 328.00
  L 272.43 328.00
  A 0.43 0.43 0.0 0 1 272.00 327.57
  L 272.00 264.43
  Z
  M 304.20 335.68
  C 304.22 340.98 308.15 343.95 313.26 343.97
  Q 332.36 344.04 351.50 343.98
  Q 352.00 343.98 352.00 343.49
  L 352.00 328.50
  A 0.50 0.50 0.0 0 0 351.50 328.00
  L 320.50 328.00
  A 0.50 0.50 0.0 0 1 320.00 327.50
  L 320.00 248.50
  Q 320.00 248.00 319.50 248.00
  L 304.51 248.00
  Q 303.98 248.00 303.98 248.52
  Q 303.97 292.12 304.20 335.68
  Z"
  />
  <path fill="#2b66b9"
    d="
  M 373.75 418.54
  Q 372.90 418.42 372.50 418.52
  C 366.91 419.89 326.53 427.12 325.75 423.04
  Q 364.94 402.55 387.30 364.48
  Q 387.57 364.01 387.10 363.73
  L 380.50 359.79
  Q 385.40 352.33 388.75 344.04
  L 415.49 344.00
  Q 416.00 344.00 416.00 343.49
  L 416.00 328.51
  Q 416.00 328.00 415.49 328.00
  L 394.81 327.94
  Q 398.76 310.38 399.45 301.69
  Q 404.43 239.10 363.62 192.49
  L 381.08 164.80
  A 0.30 0.29 38.0 0 1 381.54 164.75
  C 452.03 236.80 447.51 351.28 373.75 418.54
  Z"
  />
  <rect fill="#000000" x="-8.15" y="-8.16" transform="translate(39.13,177.22) rotate(25.3)"
    width="16.30" height="16.32" rx="0.57" />
  <rect fill="#000000" x="-8.16" y="-8.19" transform="translate(473.83,179.27) rotate(-24.9)"
    width="16.32" height="16.38" rx="0.65" />
  <rect fill="#000000" x="-8.16" y="-8.18" transform="translate(27.39,206.93) rotate(17.7)"
    width="16.32" height="16.36" rx="0.72" />
  <rect fill="#000000" x="-8.17" y="-8.16" transform="translate(485.28,209.15) rotate(-17.3)"
    width="16.34" height="16.32" rx="0.85" />
  <path fill="#3377cc"
    d="
  M 146.26 207.96
  Q 144.06 227.91 143.87 247.96
  L 117.75 247.96
  L 120.04 240.00
  L 127.01 242.47
  A 0.84 0.84 0.0 0 0 128.09 241.96
  Q 134.53 223.75 146.26 207.96
  Z"
  />
  <path fill="#000000"
    d="
  M 13.92 228.37
  L 28.48 231.46
  A 0.71 0.71 0.0 0 1 29.03 232.28
  L 26.52 246.51
  A 0.71 0.71 0.0 0 1 25.72 247.09
  L 10.94 244.88
  A 0.71 0.71 0.0 0 1 10.35 244.05
  L 13.07 228.94
  A 0.71 0.71 0.0 0 1 13.92 228.37
  Z"
  />
  <path fill="#000000"
    d="
  M 499.45 231.40
  L 501.96 246.37
  A 0.82 0.82 0.0 0 1 501.26 247.32
  L 486.67 249.26
  A 0.82 0.82 0.0 0 1 485.75 248.58
  L 483.41 234.52
  A 0.82 0.82 0.0 0 1 484.06 233.59
  L 498.48 230.73
  A 0.82 0.82 0.0 0 1 499.45 231.40
  Z"
  />
  <path fill="#000000"
    d="
  M 117.75 247.96
  L 143.87 247.96
  L 144.04 259.50
  L 144.00 263.29
  Q 143.99 264.00 143.28 264.00
  L 112.77 264.00
  Q 112.28 264.00 112.28 264.48
  L 112.01 287.55
  A 0.46 0.46 0.0 0 0 112.47 288.01
  Q 122.21 287.97 131.94 288.01
  C 138.81 288.04 143.83 289.27 143.97 297.01
  Q 144.10 304.66 143.98 331.26
  C 143.95 338.54 143.07 343.81 134.73 343.92
  Q 129.14 344.00 123.50 344.04
  L 96.51 344.01
  A 0.51 0.51 0.0 0 1 96.00 343.50
  L 96.00 328.50
  Q 96.00 327.95 96.56 327.94
  L 117.25 327.71
  Q 122.21 328.32 127.41 327.90
  Q 128.00 327.85 128.00 327.26
  L 128.00 304.72
  Q 128.00 304.05 127.33 304.05
  L 113.00 304.04
  C 107.17 304.33 96.11 304.71 96.05 295.93
  Q 95.88 265.90 96.03 257.01
  C 96.22 245.33 110.43 247.99 117.75 247.96
  Z"
  />
  <path fill="#000000"
    d="
  M 175.96 344.00
  L 160.56 344.01
  Q 160.00 344.01 160.00 343.45
  L 159.96 312.50
  L 159.99 248.52
  Q 159.99 248.00 160.51 248.00
  L 175.50 248.00
  Q 176.00 248.00 176.00 248.50
  L 176.00 278.28
  A 0.37 0.37 0.0 0 0 176.61 278.57
  L 210.48 250.33
  Q 210.90 249.99 211.24 250.40
  L 220.64 261.80
  Q 220.96 262.18 220.57 262.51
  L 200.49 279.22
  Q 200.14 279.50 200.34 279.90
  L 230.75 339.89
  A 0.54 0.54 0.0 0 1 230.51 340.61
  L 217.28 347.26
  Q 216.89 347.45 216.69 347.06
  L 187.89 290.29
  A 0.32 0.32 0.0 0 0 187.40 290.19
  L 176.34 299.31
  Q 175.98 299.60 175.98 300.06
  L 175.96 344.00
  Z"
  />
  <path fill="#000000"
    d="
  M 272.00 264.43
  L 272.00 327.57
  A 0.43 0.43 0.0 0 0 272.43 328.00
  L 287.57 328.00
  A 0.43 0.43 0.0 0 1 288.00 328.43
  L 288.00 343.57
  A 0.43 0.43 0.0 0 1 287.57 344.00
  L 240.43 344.00
  A 0.43 0.43 0.0 0 1 240.00 343.57
  L 240.00 328.43
  A 0.43 0.43 0.0 0 1 240.43 328.00
  L 255.57 328.00
  A 0.43 0.43 0.0 0 0 256.00 327.57
  L 256.00 264.43
  A 0.43 0.43 0.0 0 0 255.57 264.00
  L 240.43 264.00
  A 0.43 0.43 0.0 0 1 240.00 263.57
  L 240.00 248.43
  A 0.43 0.43 0.0 0 1 240.43 248.00
  L 287.57 248.00
  A 0.43 0.43 0.0 0 1 288.00 248.43
  L 288.00 263.57
  A 0.43 0.43 0.0 0 1 287.57 264.00
  L 272.43 264.00
  A 0.43 0.43 0.0 0 0 272.00 264.43
  Z"
  />
  <path fill="#000000"
    d="
  M 313.26 343.97
  C 308.15 343.95 304.22 340.98 304.20 335.68
  Q 303.97 292.12 303.98 248.52
  Q 303.98 248.00 304.51 248.00
  L 319.50 248.00
  Q 320.00 248.00 320.00 248.50
  L 320.00 327.50
  A 0.50 0.50 0.0 0 0 320.50 328.00
  L 351.50 328.00
  A 0.50 0.50 0.0 0 1 352.00 328.50
  L 352.00 343.49
  Q 352.00 343.98 351.50 343.98
  Q 332.36 344.04 313.26 343.97
  Z"
  />
  <path fill="#000000"
    d="
  M 394.81 327.94
  L 415.49 328.00
  Q 416.00 328.00 416.00 328.51
  L 416.00 343.49
  Q 416.00 344.00 415.49 344.00
  L 388.75 344.04
  C 377.92 343.90 368.02 347.09 368.01 331.86
  Q 367.98 290.19 368.01 248.51
  Q 368.01 248.00 368.51 248.00
  L 383.50 248.00
  Q 384.00 248.00 384.00 248.50
  L 384.00 327.50
  A 0.48 0.48 0.0 0 0 384.49 327.98
  L 394.81 327.94
  Z"
  />
  <path fill="#3377cc"
    d="
  M 144.04 259.50
  Q 144.32 260.32 144.25 261.23
  Q 144.21 261.73 144.68 261.90
  C 146.15 262.42 145.55 263.45 145.67 264.39
  Q 148.95 288.84 158.58 311.54
  Q 158.78 312.01 159.24 312.20
  L 159.96 312.50
  L 160.00 343.45
  Q 160.00 344.01 160.56 344.01
  L 175.96 344.00
  Q 176.35 344.26 176.61 344.62
  Q 217.25 401.89 285.59 419.04
  Q 286.04 419.16 286.27 419.57
  Q 286.52 420.03 287.25 420.21
  C 227.98 434.05 170.21 408.02 138.49 356.58
  Q 138.20 356.12 137.72 356.38
  L 131.04 360.00
  L 123.50 344.04
  Q 129.14 344.00 134.73 343.92
  C 143.07 343.81 143.95 338.54 143.98 331.26
  Q 144.10 304.66 143.97 297.01
  C 143.83 289.27 138.81 288.04 131.94 288.01
  Q 122.21 287.97 112.47 288.01
  A 0.46 0.46 0.0 0 1 112.01 287.55
  L 112.28 264.48
  Q 112.28 264.00 112.77 264.00
  L 143.28 264.00
  Q 143.99 264.00 144.00 263.29
  L 144.04 259.50
  Z"
  />
  <rect fill="#000000" x="-8.16" y="-8.25" transform="translate(16.25,269.75) rotate(2.6)"
    width="16.32" height="16.50" rx="0.92" />
  <path fill="#000000"
    d="
  M 503.80 264.07
  L 504.07 279.27
  A 0.72 0.72 0.0 0 1 503.35 280.00
  L 488.78 280.00
  A 0.72 0.72 0.0 0 1 488.06 279.32
  L 487.28 265.10
  A 0.72 0.72 0.0 0 1 487.95 264.34
  L 503.04 263.36
  A 0.72 0.72 0.0 0 1 503.80 264.07
  Z"
  />
  <path fill="#3377cc"
    d="
  M 113.00 304.04
  L 127.33 304.05
  Q 128.00 304.05 128.00 304.72
  L 128.00 327.26
  Q 128.00 327.85 127.41 327.90
  Q 122.21 328.32 117.25 327.71
  C 117.30 327.51 117.42 326.86 117.36 326.67
  Q 114.20 315.55 113.00 304.04
  Z"
  />
  <path fill="#000000"
    d="
  M 380.50 359.79
  L 387.10 363.73
  Q 387.57 364.01 387.30 364.48
  Q 364.94 402.55 325.75 423.04
  C 253.04 460.15 165.98 434.25 124.70 364.34
  Q 124.47 363.94 124.86 363.71
  L 131.04 360.00
  L 137.72 356.38
  Q 138.20 356.12 138.49 356.58
  C 170.21 408.02 227.98 434.05 287.25 420.21
  Q 343.54 405.90 373.53 356.46
  Q 373.81 355.99 374.28 356.26
  L 380.50 359.79
  Z"
  />
</svg>