<?xml version="1.0" encoding="UTF-8" standalone="no"?>
<!DOCTYPE svg PUBLIC "-//W3C//DTD SVG 1.1//EN" "http://www.w3.org/Graphics/SVG/1.1/DTD/svg11.dtd">
<svg xmlns="http://www.w3.org/2000/svg" version="1.1" viewBox="0 0 512 512">
  <g stroke-width="2.00" fill="none" stroke-linecap="butt">
    <path stroke="#3eb1ff" vector-effect="non-scaling-stroke"
      d="
  M 182.46 51.50
  Q 160.21 75.80 146.85 106.12
  Q 146.61 106.68 147.20 106.82
  Q 197.04 118.02 248.14 118.69
  A 0.34 0.34 0.0 0 0 248.49 118.35
  L 248.46 19.50"
    />
    <path stroke="#30a7fe" vector-effect="non-scaling-stroke"
      d="
  M 248.46 19.50
  L 248.42 15.96
  Q 248.41 15.37 247.82 15.44
  C 221.96 18.36 199.52 32.35 182.46 51.50"
    />
    <path stroke="#0e9efe" vector-effect="non-scaling-stroke"
      d="
  M 248.46 19.50
  Q 213.45 30.79 183.26 51.75
  Q 182.94 51.97 182.66 51.70
  L 182.46 51.50"
    />
    <path stroke="#3eb1ff" vector-effect="non-scaling-stroke"
      d="
  M 264.13 15.39
  A 0.56 0.56 0.0 0 0 263.50 15.95
  L 263.50 118.23
  Q 263.50 118.68 263.95 118.67
  Q 315.13 118.04 365.04 106.76
  A 0.39 0.38 71.7 0 0 365.30 106.23
  C 346.29 64.17 312.70 21.66 264.13 15.39"
    />
    <path stroke="#30a7fe" vector-effect="non-scaling-stroke"
      d="
  M 91.66 80.04
  C 90.31 81.31 87.53 83.58 85.79 85.66
  Q 85.32 86.24 86.00 86.54
  Q 107.94 96.23 131.05 102.63
  A 0.64 0.64 0.0 0 0 131.81 102.28
  C 145.29 72.59 163.37 46.34 188.33 25.15
  Q 188.87 24.70 188.19 24.90
  Q 133.29 41.05 91.66 80.04"
    />
    <path stroke="#3eb1ff" vector-effect="non-scaling-stroke"
      d="
  M 421.33 81.01
  Q 379.40 41.25 323.78 24.90
  Q 323.09 24.70 323.64 25.16
  Q 349.77 47.23 367.03 76.77
  Q 374.33 89.27 380.14 102.26
  A 0.72 0.71 -19.7 0 0 380.99 102.66
  Q 404.20 96.17 426.25 86.46
  Q 426.75 86.24 426.39 85.83
  C 424.84 84.01 422.50 82.12 421.33 81.01"
    />
    <path stroke="#8bcbff" vector-effect="non-scaling-stroke" d="
  M 75.04 247.75
  L 75.21 263.25"
    />
    <path stroke="#30a7fe" vector-effect="non-scaling-stroke"
      d="
  M 75.21 263.25
  L 15.77 263.43
  Q 15.23 263.43 15.24 263.97
  C 16.55 319.40 38.37 372.25 74.15 413.87
  Q 74.48 414.25 74.94 414.04
  Q 96.93 403.79 120.00 396.96"
    />
    <path stroke="#3eb1ff" vector-effect="non-scaling-stroke"
      d="
  M 120.00 396.96
  L 125.04 395.34
  Q 125.62 395.15 125.40 394.58
  Q 113.03 361.96 107.25 327.54"
    />
    <path stroke="#8bcbff" vector-effect="non-scaling-stroke"
      d="
  M 107.25 327.54
  L 122.75 327.54"
    />
    <path stroke="#3eb1ff" vector-effect="non-scaling-stroke"
      d="
  M 122.75 327.54
  L 122.60 327.77
  Q 122.48 327.96 122.52 328.19
  Q 128.30 360.37 140.20 390.82
  Q 140.42 391.38 141.01 391.24
  Q 193.80 379.12 247.98 378.28
  Q 248.48 378.27 248.48 377.77
  L 248.50 327.54"
    />
    <path stroke="#9ed3ff" vector-effect="non-scaling-stroke"
      d="
  M 248.50 327.54
  L 263.25 327.54"
    />
    <path stroke="#3eb1ff" vector-effect="non-scaling-stroke"
      d="
  M 263.25 327.54
  L 263.45 377.79
  Q 263.46 378.33 264.00 378.33
  Q 318.35 379.03 371.28 391.29
  A 0.37 0.36 -72.1 0 0 371.70 391.07
  Q 383.88 360.27 389.50 327.54"
    />
    <path stroke="#9ed3ff" vector-effect="non-scaling-stroke"
      d="
  M 389.50 327.54
  L 405.00 327.54"
    />
    <path stroke="#3eb1ff" vector-effect="non-scaling-stroke"
      d="
  M 405.00 327.54
  Q 398.79 362.10 386.49 394.91
  A 0.43 0.41 18.4 0 0 386.78 395.46
  Q 412.76 402.65 437.16 414.08
  Q 437.58 414.28 437.88 413.93
  Q 492.70 349.83 496.86 264.94
  Q 496.93 263.50 495.49 263.50
  L 437.04 263.50"
    />
    <path stroke="#9ed3ff" vector-effect="non-scaling-stroke"
      d="
  M 437.04 263.50
  L 437.01 248.79"
    />
    <path stroke="#3eb1ff" vector-effect="non-scaling-stroke"
      d="
  M 437.01 248.79
  L 496.20 248.55
  Q 496.75 248.55 496.74 247.99
  C 495.60 192.59 473.46 139.51 437.72 97.92
  A 0.38 0.37 -32.7 0 0 437.29 97.83
  Q 412.88 109.18 386.98 116.53
  A 0.64 0.64 0.0 0 0 386.55 117.38
  Q 399.05 150.04 404.75 184.46"
    />
    <path stroke="#9ed3ff" vector-effect="non-scaling-stroke"
      d="
  M 404.75 184.46
  L 389.75 184.46"
    />
    <path stroke="#3eb1ff" vector-effect="non-scaling-stroke"
      d="
  M 389.75 184.46
  Q 383.65 151.78 371.84 121.23
  Q 371.61 120.63 370.98 120.78
  Q 318.22 132.91 264.05 133.73
  A 0.64 0.64 0.0 0 0 263.42 134.37
  L 263.25 184.46"
    />
    <path stroke="#9ed3ff" vector-effect="non-scaling-stroke"
      d="
  M 263.25 184.46
  L 248.75 184.46"
    />
    <path stroke="#3eb1ff" vector-effect="non-scaling-stroke"
      d="
  M 248.75 184.46
  L 248.54 134.22
  Q 248.54 133.72 248.04 133.71
  Q 193.70 132.90 140.77 120.71
  A 0.47 0.46 -72.6 0 0 140.23 121.00
  Q 128.32 151.78 122.25 184.46"
    />
    <path stroke="#8bcbff" vector-effect="non-scaling-stroke"
      d="
  M 122.25 184.46
  L 107.25 184.46"
    />
    <path stroke="#3eb1ff" vector-effect="non-scaling-stroke"
      d="
  M 107.25 184.46
  Q 112.89 150.41 125.43 117.37
  A 0.64 0.64 0.0 0 0 125.02 116.53
  L 120.00 115.04"
    />
    <path stroke="#30a7fe" vector-effect="non-scaling-stroke"
      d="
  M 120.00 115.04
  Q 96.87 108.17 74.92 97.92
  Q 74.45 97.70 74.12 98.09
  Q 19.26 162.15 15.12 247.04
  Q 15.05 248.50 16.51 248.50
  L 74.56 248.51
  Q 74.97 248.51 75.01 248.10
  L 75.04 247.75"
    />
    <path stroke="#0e9efe" vector-effect="non-scaling-stroke"
      d="
  M 120.00 115.04
  Q 97.66 147.53 86.49 185.36"
    />
    <path stroke="#5bb8fe" vector-effect="non-scaling-stroke"
      d="
  M 86.49 185.36
  C 78.15 188.88 75.24 195.12 75.27 204.02
  Q 75.37 225.89 75.04 247.75"
    />
    <path stroke="#c8e5ff" vector-effect="non-scaling-stroke"
      d="
  M 148.50 184.46
  C 141.31 190.16 138.24 192.59 138.24 202.71
  Q 138.25 231.47 137.66 260.28"
    />
    <path stroke="#8bcbff" vector-effect="non-scaling-stroke"
      d="
  M 137.66 260.28
  Q 131.40 245.47 126.19 230.48
  Q 124.91 226.81 123.60 225.47
  C 119.58 221.33 112.35 223.19 111.10 228.99
  Q 110.62 231.23 112.11 235.33
  Q 121.33 260.70 130.77 285.99
  Q 132.81 291.48 138.00 292.29"
    />
    <path stroke="#c8e5ff" vector-effect="non-scaling-stroke"
      d="
  M 138.00 292.29
  C 138.53 305.13 134.55 320.38 149.00 327.54"
    />
    <path stroke="#69c2ff" vector-effect="non-scaling-stroke"
      d="
  M 149.00 327.54
  L 122.75 327.54"
    />
    <path stroke="#69c2ff" vector-effect="non-scaling-stroke"
      d="
  M 107.25 327.54
  C 101.11 327.52 92.79 328.38 87.00 326.54"
    />
    <path stroke="#5bb8fe" vector-effect="non-scaling-stroke"
      d="
  M 87.00 326.54
  C 78.08 323.40 75.38 317.09 75.17 307.79
  C 74.88 294.59 75.34 281.63 75.21 263.25"
    />
    <path stroke="#69c2ff" vector-effect="non-scaling-stroke"
      d="
  M 107.25 184.46
  C 100.31 184.48 93.36 184.10 86.49 185.36"
    />
    <path stroke="#7ccbff" vector-effect="non-scaling-stroke"
      d="
  M 437.04 263.50
  Q 436.98 283.38 437.00 303.24
  Q 437.00 312.75 435.64 316.45
  C 430.67 329.87 416.52 327.39 405.00 327.54"
    />
    <path stroke="#7ccbff" vector-effect="non-scaling-stroke"
      d="
  M 389.50 327.54
  L 263.25 327.54"
    />
    <path stroke="#7ccbff" vector-effect="non-scaling-stroke"
      d="
  M 248.50 327.54
  L 149.00 327.54"
    />
    <path stroke="#9ed3ff" vector-effect="non-scaling-stroke"
      d="
  M 138.00 292.29
  C 142.52 291.93 144.36 289.65 145.91 285.38
  Q 150.34 273.17 154.68 260.85
  A 0.39 0.39 0.0 0 1 155.41 260.85
  Q 159.24 271.52 163.16 282.46
  C 165.19 288.12 167.80 294.94 175.45 291.25
  Q 177.81 290.11 178.52 288.22
  Q 188.58 261.03 198.62 233.83
  C 202.24 224.01 188.65 217.99 184.23 229.70
  Q 178.19 245.65 172.40 261.76
  A 0.41 0.41 0.0 0 1 171.62 261.76
  Q 167.11 248.98 162.44 235.98
  C 159.34 227.35 150.38 228.29 147.47 236.44
  Q 142.98 248.98 138.54 261.53
  Q 138.37 262.01 137.93 261.75
  Q 137.26 261.34 137.66 260.28"
    />
    <path stroke="#0e9efe" vector-effect="non-scaling-stroke"
      d="
  M 87.00 326.54
  L 86.80 327.30
  Q 86.68 327.74 86.81 328.18
  Q 98.24 365.07 120.00 396.96"
    />
    <path stroke="#7ccbff" vector-effect="non-scaling-stroke"
      d="
  M 248.75 184.46
  L 148.50 184.46"
    />
    <path stroke="#69c2ff" vector-effect="non-scaling-stroke"
      d="
  M 148.50 184.46
  L 122.25 184.46"
    />
    <path stroke="#7ccbff" vector-effect="non-scaling-stroke"
      d="
  M 389.75 184.46
  L 263.25 184.46"
    />
    <path stroke="#7ccbff" vector-effect="non-scaling-stroke"
      d="
  M 437.01 248.79
  Q 437.07 227.22 436.91 205.21
  Q 436.86 198.36 435.43 194.99
  C 429.98 182.14 415.80 184.37 404.75 184.46"
    />
    <path stroke="#30a7fe" vector-effect="non-scaling-stroke"
      d="
  M 182.46 460.50
  C 199.57 479.68 221.96 493.61 247.84 496.53
  Q 248.42 496.59 248.42 496.01
  L 248.43 492.36"
    />
    <path stroke="#3eb1ff" vector-effect="non-scaling-stroke"
      d="
  M 248.43 492.36
  L 248.47 393.80
  Q 248.47 393.31 247.98 393.31
  Q 196.84 394.02 146.96 405.22
  Q 146.48 405.33 146.68 405.78
  Q 160.10 435.34 181.62 459.64
  Q 182.02 460.08 182.46 460.50"
    />
    <path stroke="#0e9efe" vector-effect="non-scaling-stroke"
      d="
  M 248.43 492.36
  Q 213.50 481.31 183.50 460.40
  C 183.15 460.15 182.71 460.13 182.46 460.50"
    />
    <path stroke="#3eb1ff" vector-effect="non-scaling-stroke"
      d="
  M 365.20 405.25
  Q 315.19 393.94 263.89 393.34
  A 0.38 0.38 0.0 0 0 263.50 393.72
  L 263.50 496.00
  Q 263.50 496.51 264.01 496.46
  C 312.17 491.70 347.06 446.39 365.36 405.57
  Q 365.48 405.31 365.20 405.25"
    />
    <path stroke="#30a7fe" vector-effect="non-scaling-stroke"
      d="
  M 90.18 430.51
  Q 132.27 470.61 188.21 487.08
  Q 188.80 487.25 188.33 486.86
  C 163.33 465.75 145.45 439.35 131.66 409.67
  Q 131.46 409.23 130.98 409.36
  Q 107.87 415.79 85.94 425.51
  Q 85.36 425.77 85.74 426.27
  C 87.02 427.94 89.03 429.42 90.18 430.51"
    />
    <path stroke="#3eb1ff" vector-effect="non-scaling-stroke"
      d="
  M 380.20 409.67
  C 366.06 440.07 349.13 464.44 323.67 486.85
  Q 323.12 487.33 323.82 487.13
  Q 382.93 469.53 426.52 426.07
  A 0.27 0.27 0.0 0 0 426.44 425.63
  Q 404.28 415.83 380.94 409.33
  Q 380.42 409.18 380.20 409.67"
    />
    <path stroke="#9ed3ff" vector-effect="non-scaling-stroke"
      d="
  M 255.81 260.23
  A 0.22 0.22 0.0 0 1 256.22 260.24
  Q 260.82 273.73 265.85 287.04
  C 268.53 294.14 277.35 293.60 279.95 286.71
  Q 289.58 261.16 298.91 235.50
  Q 300.46 231.25 300.01 228.85
  C 299.07 223.74 291.66 221.36 287.91 224.92
  Q 286.41 226.35 284.86 230.52
  Q 279.01 246.23 273.21 262.03
  A 0.30 0.30 0.0 0 1 272.64 262.03
  Q 268.31 249.60 263.78 237.04
  C 261.92 231.88 259.61 229.02 253.86 230.53
  Q 250.31 231.47 249.54 233.55
  Q 244.33 247.69 239.36 262.02
  A 0.33 0.32 44.5 0 1 238.75 262.02
  Q 232.66 245.36 226.41 228.58
  C 222.71 218.63 208.57 223.19 212.94 235.09
  Q 222.40 260.84 231.78 286.62
  C 233.58 291.55 239.68 293.96 243.73 290.62
  Q 245.49 289.16 246.99 284.97
  Q 251.41 272.63 255.81 260.23"
    />
    <path stroke="#9ed3ff" vector-effect="non-scaling-stroke"
      d="
  M 357.19 260.47
  Q 361.78 273.18 366.28 285.88
  C 368.88 293.21 377.91 294.84 380.89 286.85
  Q 390.84 260.23 400.63 233.54
  C 402.71 227.88 398.10 222.18 392.20 223.41
  C 387.49 224.39 386.77 228.03 385.32 231.87
  Q 379.68 246.88 374.19 261.98
  A 0.30 0.30 0.0 0 1 373.63 261.98
  Q 369.10 249.29 364.55 236.62
  Q 363.29 233.09 361.39 231.59
  C 357.22 228.29 351.72 230.31 349.89 235.22
  Q 344.97 248.39 340.41 261.77
  A 0.41 0.41 0.0 0 1 339.64 261.78
  Q 333.47 245.03 327.18 228.06
  C 323.81 218.96 309.49 223.12 313.92 235.17
  Q 323.32 260.79 332.83 286.38
  C 335.23 292.84 344.47 294.58 346.96 287.69
  Q 351.87 274.10 356.67 260.47
  A 0.28 0.27 44.6 0 1 357.19 260.47"
    />
  </g>
  <path fill="#60b9fe"
    d="
  M 249.81 0.00
  L 262.31 0.00
  C 399.75 4.15 507.58 112.88 512.00 249.81
  L 512.00 261.56
  C 508.01 399.62 398.69 508.79 260.44 512.00
  L 249.69 512.00
  C 111.34 507.61 3.86 398.42 0.00 260.69
  L 0.00 250.44
  C 2.22 184.16 27.53 122.50 74.27 75.88
  Q 146.10 4.24 249.81 0.00
  Z
  M 182.46 51.50
  Q 160.21 75.80 146.85 106.12
  Q 146.61 106.68 147.20 106.82
  Q 197.04 118.02 248.14 118.69
  A 0.34 0.34 0.0 0 0 248.49 118.35
  L 248.46 19.50
  L 248.42 15.96
  Q 248.41 15.37 247.82 15.44
  C 221.96 18.36 199.52 32.35 182.46 51.50
  Z
  M 264.13 15.39
  A 0.56 0.56 0.0 0 0 263.50 15.95
  L 263.50 118.23
  Q 263.50 118.68 263.95 118.67
  Q 315.13 118.04 365.04 106.76
  A 0.39 0.38 71.7 0 0 365.30 106.23
  C 346.29 64.17 312.70 21.66 264.13 15.39
  Z
  M 91.66 80.04
  C 90.31 81.31 87.53 83.58 85.79 85.66
  Q 85.32 86.24 86.00 86.54
  Q 107.94 96.23 131.05 102.63
  A 0.64 0.64 0.0 0 0 131.81 102.28
  C 145.29 72.59 163.37 46.34 188.33 25.15
  Q 188.87 24.70 188.19 24.90
  Q 133.29 41.05 91.66 80.04
  Z
  M 421.33 81.01
  Q 379.40 41.25 323.78 24.90
  Q 323.09 24.70 323.64 25.16
  Q 349.77 47.23 367.03 76.77
  Q 374.33 89.27 380.14 102.26
  A 0.72 0.71 -19.7 0 0 380.99 102.66
  Q 404.20 96.17 426.25 86.46
  Q 426.75 86.24 426.39 85.83
  C 424.84 84.01 422.50 82.12 421.33 81.01
  Z
  M 75.04 247.75
  L 75.21 263.25
  L 15.77 263.43
  Q 15.23 263.43 15.24 263.97
  C 16.55 319.40 38.37 372.25 74.15 413.87
  Q 74.48 414.25 74.94 414.04
  Q 96.93 403.79 120.00 396.96
  L 125.04 395.34
  Q 125.62 395.15 125.40 394.58
  Q 113.03 361.96 107.25 327.54
  L 122.75 327.54
  L 122.60 327.77
  Q 122.48 327.96 122.52 328.19
  Q 128.30 360.37 140.20 390.82
  Q 140.42 391.38 141.01 391.24
  Q 193.80 379.12 247.98 378.28
  Q 248.48 378.27 248.48 377.77
  L 248.50 327.54
  L 263.25 327.54
  L 263.45 377.79
  Q 263.46 378.33 264.00 378.33
  Q 318.35 379.03 371.28 391.29
  A 0.37 0.36 -72.1 0 0 371.70 391.07
  Q 383.88 360.27 389.50 327.54
  L 405.00 327.54
  Q 398.79 362.10 386.49 394.91
  A 0.43 0.41 18.4 0 0 386.78 395.46
  Q 412.76 402.65 437.16 414.08
  Q 437.58 414.28 437.88 413.93
  Q 492.70 349.83 496.86 264.94
  Q 496.93 263.50 495.49 263.50
  L 437.04 263.50
  L 437.01 248.79
  L 496.20 248.55
  Q 496.75 248.55 496.74 247.99
  C 495.60 192.59 473.46 139.51 437.72 97.92
  A 0.38 0.37 -32.7 0 0 437.29 97.83
  Q 412.88 109.18 386.98 116.53
  A 0.64 0.64 0.0 0 0 386.55 117.38
  Q 399.05 150.04 404.75 184.46
  L 389.75 184.46
  Q 383.65 151.78 371.84 121.23
  Q 371.61 120.63 370.98 120.78
  Q 318.22 132.91 264.05 133.73
  A 0.64 0.64 0.0 0 0 263.42 134.37
  L 263.25 184.46
  L 248.75 184.46
  L 248.54 134.22
  Q 248.54 133.72 248.04 133.71
  Q 193.70 132.90 140.77 120.71
  A 0.47 0.46 -72.6 0 0 140.23 121.00
  Q 128.32 151.78 122.25 184.46
  L 107.25 184.46
  Q 112.89 150.41 125.43 117.37
  A 0.64 0.64 0.0 0 0 125.02 116.53
  L 120.00 115.04
  Q 96.87 108.17 74.92 97.92
  Q 74.45 97.70 74.12 98.09
  Q 19.26 162.15 15.12 247.04
  Q 15.05 248.50 16.51 248.50
  L 74.56 248.51
  Q 74.97 248.51 75.01 248.10
  L 75.04 247.75
  Z
  M 182.46 460.50
  C 199.57 479.68 221.96 493.61 247.84 496.53
  Q 248.42 496.59 248.42 496.01
  L 248.43 492.36
  L 248.47 393.80
  Q 248.47 393.31 247.98 393.31
  Q 196.84 394.02 146.96 405.22
  Q 146.48 405.33 146.68 405.78
  Q 160.10 435.34 181.62 459.64
  Q 182.02 460.08 182.46 460.50
  Z
  M 365.20 405.25
  Q 315.19 393.94 263.89 393.34
  A 0.38 0.38 0.0 0 0 263.50 393.72
  L 263.50 496.00
  Q 263.50 496.51 264.01 496.46
  C 312.17 491.70 347.06 446.39 365.36 405.57
  Q 365.48 405.31 365.20 405.25
  Z
  M 90.18 430.51
  Q 132.27 470.61 188.21 487.08
  Q 188.80 487.25 188.33 486.86
  C 163.33 465.75 145.45 439.35 131.66 409.67
  Q 131.46 409.23 130.98 409.36
  Q 107.87 415.79 85.94 425.51
  Q 85.36 425.77 85.74 426.27
  C 87.02 427.94 89.03 429.42 90.18 430.51
  Z
  M 380.20 409.67
  C 366.06 440.07 349.13 464.44 323.67 486.85
  Q 323.12 487.33 323.82 487.13
  Q 382.93 469.53 426.52 426.07
  A 0.27 0.27 0.0 0 0 426.44 425.63
  Q 404.28 415.83 380.94 409.33
  Q 380.42 409.18 380.20 409.67
  Z"
  />
  <path fill="#0094fd"
    d="
  M 248.46 19.50
  Q 213.45 30.79 183.26 51.75
  Q 182.94 51.97 182.66 51.70
  L 182.46 51.50
  C 199.52 32.35 221.96 18.36 247.82 15.44
  Q 248.41 15.37 248.42 15.96
  L 248.46 19.50
  Z"
  />
  <path fill="#1ca8ff"
    d="
  M 264.13 15.39
  C 312.70 21.66 346.29 64.17 365.30 106.23
  A 0.39 0.38 71.7 0 1 365.04 106.76
  Q 315.13 118.04 263.95 118.67
  Q 263.50 118.68 263.50 118.23
  L 263.50 15.95
  A 0.56 0.56 0.0 0 1 264.13 15.39
  Z"
  />
  <path fill="#1ca8ff"
    d="
  M 248.46 19.50
  L 248.49 118.35
  A 0.34 0.34 0.0 0 1 248.14 118.69
  Q 197.04 118.02 147.20 106.82
  Q 146.61 106.68 146.85 106.12
  Q 160.21 75.80 182.46 51.50
  L 182.66 51.70
  Q 182.94 51.97 183.26 51.75
  Q 213.45 30.79 248.46 19.50
  Z"
  />
  <path fill="#0094fd"
    d="
  M 91.66 80.04
  Q 133.29 41.05 188.19 24.90
  Q 188.87 24.70 188.33 25.15
  C 163.37 46.34 145.29 72.59 131.81 102.28
  A 0.64 0.64 0.0 0 1 131.05 102.63
  Q 107.94 96.23 86.00 86.54
  Q 85.32 86.24 85.79 85.66
  C 87.53 83.58 90.31 81.31 91.66 80.04
  Z"
  />
  <path fill="#1ca8ff"
    d="
  M 421.33 81.01
  C 422.50 82.12 424.84 84.01 426.39 85.83
  Q 426.75 86.24 426.25 86.46
  Q 404.20 96.17 380.99 102.66
  A 0.72 0.71 -19.7 0 1 380.14 102.26
  Q 374.33 89.27 367.03 76.77
  Q 349.77 47.23 323.64 25.16
  Q 323.09 24.70 323.78 24.90
  Q 379.40 41.25 421.33 81.01
  Z"
  />
  <path fill="#0094fd"
    d="
  M 120.00 115.04
  Q 97.66 147.53 86.49 185.36
  C 78.15 188.88 75.24 195.12 75.27 204.02
  Q 75.37 225.89 75.04 247.75
  L 75.01 248.10
  Q 74.97 248.51 74.56 248.51
  L 16.51 248.50
  Q 15.05 248.50 15.12 247.04
  Q 19.26 162.15 74.12 98.09
  Q 74.45 97.70 74.92 97.92
  Q 96.87 108.17 120.00 115.04
  Z"
  />
  <path fill="#1ca8ff"
    d="
  M 437.01 248.79
  Q 437.07 227.22 436.91 205.21
  Q 436.86 198.36 435.43 194.99
  C 429.98 182.14 415.80 184.37 404.75 184.46
  Q 399.05 150.04 386.55 117.38
  A 0.64 0.64 0.0 0 1 386.98 116.53
  Q 412.88 109.18 437.29 97.83
  A 0.38 0.37 -32.7 0 1 437.72 97.92
  C 473.46 139.51 495.60 192.59 496.74 247.99
  Q 496.75 248.55 496.20 248.55
  L 437.01 248.79
  Z"
  />
  <path fill="#1ca8ff"
    d="
  M 120.00 115.04
  L 125.02 116.53
  A 0.64 0.64 0.0 0 1 125.43 117.37
  Q 112.89 150.41 107.25 184.46
  C 100.31 184.48 93.36 184.10 86.49 185.36
  Q 97.66 147.53 120.00 115.04
  Z"
  />
  <path fill="#1ca8ff"
    d="
  M 248.75 184.46
  L 148.50 184.46
  L 122.25 184.46
  Q 128.32 151.78 140.23 121.00
  A 0.47 0.46 -72.6 0 1 140.77 120.71
  Q 193.70 132.90 248.04 133.71
  Q 248.54 133.72 248.54 134.22
  L 248.75 184.46
  Z"
  />
  <path fill="#1ca8ff"
    d="
  M 389.75 184.46
  L 263.25 184.46
  L 263.42 134.37
  A 0.64 0.64 0.0 0 1 264.05 133.73
  Q 318.22 132.91 370.98 120.78
  Q 371.61 120.63 371.84 121.23
  Q 383.65 151.78 389.75 184.46
  Z"
  />
  <path fill="#b5dcff"
    d="
  M 148.50 184.46
  C 141.31 190.16 138.24 192.59 138.24 202.71
  Q 138.25 231.47 137.66 260.28
  Q 131.40 245.47 126.19 230.48
  Q 124.91 226.81 123.60 225.47
  C 119.58 221.33 112.35 223.19 111.10 228.99
  Q 110.62 231.23 112.11 235.33
  Q 121.33 260.70 130.77 285.99
  Q 132.81 291.48 138.00 292.29
  C 138.53 305.13 134.55 320.38 149.00 327.54
  L 122.75 327.54
  L 107.25 327.54
  C 101.11 327.52 92.79 328.38 87.00 326.54
  C 78.08 323.40 75.38 317.09 75.17 307.79
  C 74.88 294.59 75.34 281.63 75.21 263.25
  L 75.04 247.75
  Q 75.37 225.89 75.27 204.02
  C 75.24 195.12 78.15 188.88 86.49 185.36
  C 93.36 184.10 100.31 184.48 107.25 184.46
  L 122.25 184.46
  L 148.50 184.46
  Z"
  />
  <path fill="#dbedff"
    d="
  M 148.50 184.46
  L 248.75 184.46
  L 263.25 184.46
  L 389.75 184.46
  L 404.75 184.46
  C 415.80 184.37 429.98 182.14 435.43 194.99
  Q 436.86 198.36 436.91 205.21
  Q 437.07 227.22 437.01 248.79
  L 437.04 263.50
  Q 436.98 283.38 437.00 303.24
  Q 437.00 312.75 435.64 316.45
  C 430.67 329.87 416.52 327.39 405.00 327.54
  L 389.50 327.54
  L 263.25 327.54
  L 248.50 327.54
  L 149.00 327.54
  C 134.55 320.38 138.53 305.13 138.00 292.29
  C 142.52 291.93 144.36 289.65 145.91 285.38
  Q 150.34 273.17 154.68 260.85
  A 0.39 0.39 0.0 0 1 155.41 260.85
  Q 159.24 271.52 163.16 282.46
  C 165.19 288.12 167.80 294.94 175.45 291.25
  Q 177.81 290.11 178.52 288.22
  Q 188.58 261.03 198.62 233.83
  C 202.24 224.01 188.65 217.99 184.23 229.70
  Q 178.19 245.65 172.40 261.76
  A 0.41 0.41 0.0 0 1 171.62 261.76
  Q 167.11 248.98 162.44 235.98
  C 159.34 227.35 150.38 228.29 147.47 236.44
  Q 142.98 248.98 138.54 261.53
  Q 138.37 262.01 137.93 261.75
  Q 137.26 261.34 137.66 260.28
  Q 138.25 231.47 138.24 202.71
  C 138.24 192.59 141.31 190.16 148.50 184.46
  Z
  M 255.81 260.23
  A 0.22 0.22 0.0 0 1 256.22 260.24
  Q 260.82 273.73 265.85 287.04
  C 268.53 294.14 277.35 293.60 279.95 286.71
  Q 289.58 261.16 298.91 235.50
  Q 300.46 231.25 300.01 228.85
  C 299.07 223.74 291.66 221.36 287.91 224.92
  Q 286.41 226.35 284.86 230.52
  Q 279.01 246.23 273.21 262.03
  A 0.30 0.30 0.0 0 1 272.64 262.03
  Q 268.31 249.60 263.78 237.04
  C 261.92 231.88 259.61 229.02 253.86 230.53
  Q 250.31 231.47 249.54 233.55
  Q 244.33 247.69 239.36 262.02
  A 0.33 0.32 44.5 0 1 238.75 262.02
  Q 232.66 245.36 226.41 228.58
  C 222.71 218.63 208.57 223.19 212.94 235.09
  Q 222.40 260.84 231.78 286.62
  C 233.58 291.55 239.68 293.96 243.73 290.62
  Q 245.49 289.16 246.99 284.97
  Q 251.41 272.63 255.81 260.23
  Z
  M 357.19 260.47
  Q 361.78 273.18 366.28 285.88
  C 368.88 293.21 377.91 294.84 380.89 286.85
  Q 390.84 260.23 400.63 233.54
  C 402.71 227.88 398.10 222.18 392.20 223.41
  C 387.49 224.39 386.77 228.03 385.32 231.87
  Q 379.68 246.88 374.19 261.98
  A 0.30 0.30 0.0 0 1 373.63 261.98
  Q 369.10 249.29 364.55 236.62
  Q 363.29 233.09 361.39 231.59
  C 357.22 228.29 351.72 230.31 349.89 235.22
  Q 344.97 248.39 340.41 261.77
  A 0.41 0.41 0.0 0 1 339.64 261.78
  Q 333.47 245.03 327.18 228.06
  C 323.81 218.96 309.49 223.12 313.92 235.17
  Q 323.32 260.79 332.83 286.38
  C 335.23 292.84 344.47 294.58 346.96 287.69
  Q 351.87 274.10 356.67 260.47
  A 0.28 0.27 44.6 0 1 357.19 260.47
  Z"
  />
  <path fill="#60b9fe"
    d="
  M 137.66 260.28
  Q 137.26 261.34 137.93 261.75
  Q 138.37 262.01 138.54 261.53
  Q 142.98 248.98 147.47 236.44
  C 150.38 228.29 159.34 227.35 162.44 235.98
  Q 167.11 248.98 171.62 261.76
  A 0.41 0.41 0.0 0 0 172.40 261.76
  Q 178.19 245.65 184.23 229.70
  C 188.65 217.99 202.24 224.01 198.62 233.83
  Q 188.58 261.03 178.52 288.22
  Q 177.81 290.11 175.45 291.25
  C 167.80 294.94 165.19 288.12 163.16 282.46
  Q 159.24 271.52 155.41 260.85
  A 0.39 0.39 0.0 0 0 154.68 260.85
  Q 150.34 273.17 145.91 285.38
  C 144.36 289.65 142.52 291.93 138.00 292.29
  Q 132.81 291.48 130.77 285.99
  Q 121.33 260.70 112.11 235.33
  Q 110.62 231.23 111.10 228.99
  C 112.35 223.19 119.58 221.33 123.60 225.47
  Q 124.91 226.81 126.19 230.48
  Q 131.40 245.47 137.66 260.28
  Z"
  />
  <path fill="#60b9fe"
    d="
  M 255.81 260.23
  Q 251.41 272.63 246.99 284.97
  Q 245.49 289.16 243.73 290.62
  C 239.68 293.96 233.58 291.55 231.78 286.62
  Q 222.40 260.84 212.94 235.09
  C 208.57 223.19 222.71 218.63 226.41 228.58
  Q 232.66 245.36 238.75 262.02
  A 0.33 0.32 44.5 0 0 239.36 262.02
  Q 244.33 247.69 249.54 233.55
  Q 250.31 231.47 253.86 230.53
  C 259.61 229.02 261.92 231.88 263.78 237.04
  Q 268.31 249.60 272.64 262.03
  A 0.30 0.30 0.0 0 0 273.21 262.03
  Q 279.01 246.23 284.86 230.52
  Q 286.41 226.35 287.91 224.92
  C 291.66 221.36 299.07 223.74 300.01 228.85
  Q 300.46 231.25 298.91 235.50
  Q 289.58 261.16 279.95 286.71
  C 277.35 293.60 268.53 294.14 265.85 287.04
  Q 260.82 273.73 256.22 260.24
  A 0.22 0.22 0.0 0 0 255.81 260.23
  Z"
  />
  <path fill="#60b9fe"
    d="
  M 357.19 260.47
  A 0.28 0.27 44.6 0 0 356.67 260.47
  Q 351.87 274.10 346.96 287.69
  C 344.47 294.58 335.23 292.84 332.83 286.38
  Q 323.32 260.79 313.92 235.17
  C 309.49 223.12 323.81 218.96 327.18 228.06
  Q 333.47 245.03 339.64 261.78
  A 0.41 0.41 0.0 0 0 340.41 261.77
  Q 344.97 248.39 349.89 235.22
  C 351.72 230.31 357.22 228.29 361.39 231.59
  Q 363.29 233.09 364.55 236.62
  Q 369.10 249.29 373.63 261.98
  A 0.30 0.30 0.0 0 0 374.19 261.98
  Q 379.68 246.88 385.32 231.87
  C 386.77 228.03 387.49 224.39 392.20 223.41
  C 398.10 222.18 402.71 227.88 400.63 233.54
  Q 390.84 260.23 380.89 286.85
  C 377.91 294.84 368.88 293.21 366.28 285.88
  Q 361.78 273.18 357.19 260.47
  Z"
  />
  <path fill="#0094fd"
    d="
  M 75.21 263.25
  C 75.34 281.63 74.88 294.59 75.17 307.79
  C 75.38 317.09 78.08 323.40 87.00 326.54
  L 86.80 327.30
  Q 86.68 327.74 86.81 328.18
  Q 98.24 365.07 120.00 396.96
  Q 96.93 403.79 74.94 414.04
  Q 74.48 414.25 74.15 413.87
  C 38.37 372.25 16.55 319.40 15.24 263.97
  Q 15.23 263.43 15.77 263.43
  L 75.21 263.25
  Z"
  />
  <path fill="#1ca8ff"
    d="
  M 437.04 263.50
  L 495.49 263.50
  Q 496.93 263.50 496.86 264.94
  Q 492.70 349.83 437.88 413.93
  Q 437.58 414.28 437.16 414.08
  Q 412.76 402.65 386.78 395.46
  A 0.43 0.41 18.4 0 1 386.49 394.91
  Q 398.79 362.10 405.00 327.54
  C 416.52 327.39 430.67 329.87 435.64 316.45
  Q 437.00 312.75 437.00 303.24
  Q 436.98 283.38 437.04 263.50
  Z"
  />
  <path fill="#1ca8ff"
    d="
  M 87.00 326.54
  C 92.79 328.38 101.11 327.52 107.25 327.54
  Q 113.03 361.96 125.40 394.58
  Q 125.62 395.15 125.04 395.34
  L 120.00 396.96
  Q 98.24 365.07 86.81 328.18
  Q 86.68 327.74 86.80 327.30
  L 87.00 326.54
  Z"
  />
  <path fill="#1ca8ff"
    d="
  M 122.75 327.54
  L 149.00 327.54
  L 248.50 327.54
  L 248.48 377.77
  Q 248.48 378.27 247.98 378.28
  Q 193.80 379.12 141.01 391.24
  Q 140.42 391.38 140.20 390.82
  Q 128.30 360.37 122.52 328.19
  Q 122.48 327.96 122.60 327.77
  L 122.75 327.54
  Z"
  />
  <path fill="#1ca8ff"
    d="
  M 263.25 327.54
  L 389.50 327.54
  Q 383.88 360.27 371.70 391.07
  A 0.37 0.36 -72.1 0 1 371.28 391.29
  Q 318.35 379.03 264.00 378.33
  Q 263.46 378.33 263.45 377.79
  L 263.25 327.54
  Z"
  />
  <path fill="#1ca8ff"
    d="
  M 248.43 492.36
  Q 213.50 481.31 183.50 460.40
  C 183.15 460.15 182.71 460.13 182.46 460.50
  Q 182.02 460.08 181.62 459.64
  Q 160.10 435.34 146.68 405.78
  Q 146.48 405.33 146.96 405.22
  Q 196.84 394.02 247.98 393.31
  Q 248.47 393.31 248.47 393.80
  L 248.43 492.36
  Z"
  />
  <path fill="#1ca8ff"
    d="
  M 365.20 405.25
  Q 365.48 405.31 365.36 405.57
  C 347.06 446.39 312.17 491.70 264.01 496.46
  Q 263.50 496.51 263.50 496.00
  L 263.50 393.72
  A 0.38 0.38 0.0 0 1 263.89 393.34
  Q 315.19 393.94 365.20 405.25
  Z"
  />
  <path fill="#0094fd"
    d="
  M 90.18 430.51
  C 89.03 429.42 87.02 427.94 85.74 426.27
  Q 85.36 425.77 85.94 425.51
  Q 107.87 415.79 130.98 409.36
  Q 131.46 409.23 131.66 409.67
  C 145.45 439.35 163.33 465.75 188.33 486.86
  Q 188.80 487.25 188.21 487.08
  Q 132.27 470.61 90.18 430.51
  Z"
  />
  <path fill="#1ca8ff"
    d="
  M 323.67 486.85
  C 349.13 464.44 366.06 440.07 380.20 409.67
  Q 380.42 409.18 380.94 409.33
  Q 404.28 415.83 426.44 425.63
  A 0.27 0.27 0.0 0 1 426.52 426.07
  Q 382.93 469.53 323.82 487.13
  Q 323.12 487.33 323.67 486.85
  Z"
  />
  <path fill="#0094fd"
    d="
  M 248.43 492.36
  L 248.42 496.01
  Q 248.42 496.59 247.84 496.53
  C 221.96 493.61 199.57 479.68 182.46 460.50
  C 182.71 460.13 183.15 460.15 183.50 460.40
  Q 213.50 481.31 248.43 492.36
  Z"
  />
</svg>